<?xml version="1.0" encoding="utf-8"?>
<!-- Generator: Adobe Illustrator 22.1.0, SVG Export Plug-In . SVG Version: 6.00 Build 0)  -->
<svg version="1.1" id="Layer_1" xmlns="http://www.w3.org/2000/svg" xmlns:xlink="http://www.w3.org/1999/xlink" x="0px" y="0px"
	 viewBox="0 0 1920 1080" style="enable-background:new 0 0 1920 1080;" xml:space="preserve">
<style type="text/css">
	.st0{fill:#FFBC67;}
	.st1{fill:#202020;}
	.st2{fill:none;}
	.st3{fill:#FFFFFF;}
	.st4{font-family:'RatioDisplayRegular';}
	.st5{font-size:70px;}
	.st6{fill:#455C7B;}
	.st7{fill:#DA727E;}
	.st8{fill:none;stroke:#000000;stroke-width:3;stroke-miterlimit:10;}
	.st9{font-size:40px;}
</style>
<g>
	<g>
		<g>
			<rect x="259" y="718" class="st0" width="432" height="200"/>
			<g>
				<g>
					<g>
						<g>
							<path class="st1" d="M689.7,918c0.2,0.7,0.6,0.3,0.5-1.5l-0.7-1.3L689.7,918z"/>
							<path class="st1" d="M690.9,905.7c-0.3-2.2-0.9-4.6-1.5-3.2c0.6,2.1,0.4,2.7,1.1,5c0.1,1.8-0.2,3.2-0.5,2.9
								c0.2,0.6-0.1,2.9,0.3,3.8c0.5-2.4,0.5-5.4,0.1-8.6C690.6,904.9,690.8,905.5,690.9,905.7z"/>
							<path class="st1" d="M691.9,726.4l-0.1,1.2C691.9,727.3,691.9,726.9,691.9,726.4z"/>
							<path class="st1" d="M588.4,716.7c0.8,0,1.2-0.1,1.2-0.1C588.8,716.6,588.2,716.7,588.4,716.7z"/>
							<path class="st1" d="M569.4,716c0.4,0,0.7,0,1.1,0C570.1,716,569.7,716,569.4,716z"/>
							<path class="st1" d="M691.9,726.4l0.2-3C691.9,723.3,692,725,691.9,726.4z"/>
							<path class="st1" d="M689.3,881c0,0.6,0.1,1.1,0.2,1.6c0-0.5,0-1-0.1-1.5C689.4,881,689.3,881,689.3,881z"/>
							<path class="st1" d="M692.5,775.4l0,0.9c0.1,0.3,0.2,0.5,0.3,0.7L692.5,775.4z"/>
							<path class="st1" d="M692.6,813c0-0.8-0.5-1.1-0.8-1.5c0.2,0.5,0.3,1.1,0.4,1.9C692.3,813.4,692.4,813.3,692.6,813z"/>
							<path class="st1" d="M691.6,872.6l0.1,1.1C691.6,873.3,691.6,872.9,691.6,872.6z"/>
							<path class="st1" d="M692.6,748.5c0.1-0.1,0.2-0.2,0.2-0.3C692.7,748.2,692.6,748.3,692.6,748.5z"/>
							<path class="st1" d="M647.4,915.4c0,0,0,0.1,0,0.1C647.7,915.4,647.7,915.4,647.4,915.4z"/>
							<path class="st1" d="M691,918.2l-0.6,0c-0.1,0.1-0.1,0.2-0.1,0.3L691,918.2z"/>
							<path class="st1" d="M534.7,715.3c0.1,0,0.1,0,0.2,0C535.8,715.2,535.2,715.2,534.7,715.3z"/>
							<path class="st1" d="M256.7,760.9c0.5-3.6,0.6,5.9,1.2,0.4C257.7,761.9,257,756.4,256.7,760.9z"/>
							<path class="st1" d="M689.4,880c0-0.5,0-1,0-1.5C689.3,879.2,689.3,879.6,689.4,880z"/>
							<path class="st1" d="M257.9,761.4L257.9,761.4l0.1-0.6C257.9,761,257.9,761.2,257.9,761.4z"/>
							<path class="st1" d="M454.7,715.6c0.2,0.1,0.5,0.2,0.8,0.2C455.5,715.8,455.3,715.7,454.7,715.6z"/>
							<path class="st1" d="M514.3,716.4l-1.5-0.1C513.4,716.4,513.9,716.4,514.3,716.4z"/>
							<path class="st1" d="M423.8,716.4c-0.8,0-1.1-0.1-2.2,0c0.1,0,0.2,0,0.3,0.1C422.4,716.4,422.9,716.3,423.8,716.4z"/>
							<path class="st1" d="M391.6,716.4c0.2,0,0.4,0.1,0.6,0.1c0.3,0,0.7,0,1,0L391.6,716.4z"/>
							<path class="st1" d="M549.6,915.7c0.7,0.2,1.1,0.3,1.5,0.5C550.6,915.8,555.3,915.6,549.6,915.7z"/>
							<path class="st1" d="M689.6,881c-0.1-0.2-0.2-0.5-0.2-1c0,0.4,0,0.7,0,1.1C689.5,881.2,689.6,881.2,689.6,881z"/>
							<path class="st1" d="M422.5,720.9l-5.1-0.1C418.8,720.8,420.7,720.9,422.5,720.9z"/>
							<path class="st1" d="M318.7,915.7l1.2-0.1C319.4,915.7,319,915.7,318.7,915.7z"/>
							<path class="st1" d="M402.2,720.9c-0.9-0.2-1.9-0.3-2.9-0.4c-0.2,0-0.5,0.1-0.6,0.1L402.2,720.9z"/>
							<path class="st1" d="M551.1,916.2C551.1,916.2,551.1,916.2,551.1,916.2C551.1,916.2,551.1,916.2,551.1,916.2z"/>
							<path class="st1" d="M584.8,914.8c-4.9,0-2.3,0.7-3.3,1.1c-5.8,0.2-2.7-0.5-4.7-0.9c-3.6,0.2-6.4,0.9-9.1,0.8
								c-0.2-0.1-0.7-0.2-0.1-0.3c-3.8,0.6-11.4,0-15.9,0.8c-0.3-0.1-0.5-0.1-0.6-0.2c0.7,0.4,0.8,0.7,0.7,1c-2.2,0-4.1,0.5-4.9,0
								c1.3,0,1.5-0.2,2.1-0.3l-2.3,0.2c-2.1-0.7,3.1-0.2,3.1-0.8c-4.5,0.2-9.7,0.8-13.1,0.6c-0.7-0.7,8-0.2,3.4-0.8l5.3,0.3
								c-4-1.1,3.2,0.1-0.5-1.1c-7-0.2-7.8,0.3-14.7,0.1c-1.6,0.4,0.5,0.6-1,0.9c-9.9,0.7-7.8-1.7-15-0.8c-1.9,0.5-2.6,1.3-7.8,0.9
								l1.8-0.8c-6.7-0.1-3.8,1.1-10.9,0.6c1.3-0.3,5.3-0.3,4.3-0.3c-4.6-0.6-3.2,0.4-6.8,0.4l-0.7-0.7c-7.2,0.1-15.1,0.6-23,0.7
								c0.4-0.2,1.8-0.4-0.1-0.6c-10,0.3-21.4-0.1-31.1-0.5l-3.7,0.6c-0.9,0-1.6-0.3-0.7-0.4c-3.8-0.2-0.2,0.4-2,0.6
								c-2.1,0-2.8-0.3-1.5-0.5c-6.7,0.5-19,1.1-26,0.4l1.4-0.2c-5.5-0.2-6.2,1.2-11.2,0.7l1-0.1c-11.8-0.3-24.9,0.3-34-0.6
								c-1.7,0.8-11.7-0.4-12.5,0.8c-6.8-0.6-4.8-0.8-14.4-1.2c-2.5-0.1-3.8,0.7-6.9,0.9l-0.1-0.6l-4.3,0.6l-2.3-0.7l-3,0.2
								c1.2,0,2.5,0.3,2.3,0.5c-4.6,0.3-11.2-0.4-11.3-0.7l-10.9,0.5c0.2-0.2,2.1-0.3,3.5-0.5c-5.8,0.6-1.1-0.6-6.4-0.1
								c0.7,0.1-0.4,0.4-0.5,0.5c-2.7-0.4-8.7-0.4-13.2-0.2l0.9-0.4c-3.9-0.1-8,0-12.2,0.1c-2.1,0-4.3,0.1-6.4,0.1
								c-1.1,0-2.2,0-3.3,0l-0.6,0l0-0.2c0,0.1-0.1,0.2-0.1,0.3c0.1,0.2,0.1,0.7-0.8,0.8c0-0.1-0.1-0.3-0.1-0.5
								c0.2-0.3,0.4-0.6,0.7-0.7c-0.2-0.2-0.3,0-0.3,0.2c-0.1,0.2-0.2,0.5-0.4-0.4c0-0.2,0-0.3,0-0.4c0-0.2,0-0.3,0-0.5
								c0-0.3,0.1-0.5,0.1-0.7c0.1-0.3,0.2-0.5,0.3-0.4c0.2,0.1,0.4,0.9,0.5,1.8l-0.2-4.1c0.2-0.2,0.3,0.7,0.5,1
								c-0.4-1.7,0.7-7.1,0-9.6l0.2-0.2c0-9.1-0.2-13.2-0.3-20.6c-0.6-0.1-0.4-3-0.9-5.2c0.2-5.4,0.6-11.5,0.6-18
								c-0.3-4.6-0.5-1.3-0.8-3.4c0.5-0.3,0.5-6.9,0.8-3.5c-0.1-7.9-0.1-10-0.5-20c-0.2,1.1-0.3,2.3-0.5,1.7
								c-0.1-1.8,0.2-4.1,0.5-3.8l0.1,0.5c-0.8-11.2,1.5-25.7,0.4-34.6l0.1,0.5l-0.6-9.2c0.1-4.2,0.4,2.5,0.7-0.6
								c-0.9-9.9,0.1-15.7-0.4-23.9c1.5-6.3-0.1-22.5,0.9-31l-0.4,0.5c-0.3-2.2,0.2-2.7,0.3-4.3c-0.3,0.2-0.3,2.4-0.5,1
								c0-1.6-0.1-3.3-0.1-4.9c0-0.9,0-1.8,0-2.7c3.2,0,6.4,0.1,9.6,0.1c4,0.1,8,0.2,12,0.3c8,0.2,16.1,0.4,24,0.6
								c7,0.1,4-1.8,12.8-1l-2.5,0.7c14.2-0.8,29,0,42.8-0.6c-0.8,0.2-0.8,0.4-2.2,0.3c2.9,0.5,10.8,0,10.9-0.4
								c2.2,0,0.5,0.4,1.8,0.6c2.9,0.3,7.4-0.6,8.9-0.1c0.3,0.1-0.8,0.2-1.4,0.2c1.9-0.2,8.9,0.1,7.1-0.5c5.2,0.3,10-0.2,14.1,0.1
								c2.7-0.6,8.9,0.3,9.8-0.6c-0.4,0.9,9.1,0.7,12.4,0.3c-1.1,0.3,2.9,0.3,1.6,0.7c3.8,0,7.2-0.2,6.5-0.6
								c6.9,1.1,13.9-0.9,17.8,0.5c11.2-0.5,21.5-0.8,31.5-1c-0.4,0.9-11.1,0.1-10.7,1c9.5-0.4,15-1.1,24.4-0.9
								c2.4,0.1-1.4,0.4-2.2,0.5c9.5-0.4,18.4,0.1,26.8-0.4c0,0.1-0.9,0.2-1.8,0.2c1.7,0,3.9,0.1,3.7-0.3l-1.6,0.1
								c-2.7-0.6,6.6-1.2,6.9-1.6c-2.8,1.2,8.4,0.3,3.9,1.8c1.1-0.1,2.5-0.3,2.2-0.5c1.6,0.1,2.1,0.2,0.5,0.6c6-0.2,3.8-0.7,9.3-0.6
								c0,0.2-1.1,0.3-1.7,0.5c2.7-0.4,5.5-0.8,10.1-0.6c-0.3,0.1,0.3,0.3-1.1,0.3c7.9-0.1,13.4-1,22-0.7c-2.5,0.9,2.9,0.3,3.4,1
								l4.6-0.2l-1.9-0.4c4.1,0,7.6-0.5,11.1-0.3l-3,0.3l7.6-0.1l-4.3-0.3c4.1-0.4-0.4-0.9,5-0.7c-1.1,0.1,4.1,0,6.2,0.4l0,0
								c2-0.2,4.1-0.5,7.1-0.3c0.8,0.2-0.6,0.8-0.1,1c2-0.6,9.5-0.2,12-0.8c-0.8,0.2-0.9,0.5-0.6,0.6l1.7-0.5
								c1.9,0.2,2.2,0.2,1.8,0.6c5.7,0.1-1.8-0.9,4.9-0.5c-0.5,0-0.3,0.1-1.4,0.2c6.7,0.2,13-0.3,19.2-0.1c1.8,0.8-5.4,0.2-3.3,0.8
								c8.9-0.1,18.5-0.9,27.1-0.7l-1.6-0.1c1.2-1.1,6.4,0.5,10.8,0c-1.1,0.1-1.4,0.6-1.1,0.5c2.4,0.1,4.8,0,7.4,0
								c1.3,0,2.7-0.1,4.1-0.2c0.4,0,0.7,0,1.1,0l0.5,0l0.4,0c0.5,0,1.1-0.1,1.6-0.1c0.1,1,0.1,1.8,0.2,3.8l-0.3-1.1
								c-0.2,3.5-0.1,9.2-0.3,12.9c0.3,1.1,0.2,3.3,0.6,2c-1.6,11.6,0.8,22.2-0.5,32.5c0-1.2-0.2-2.9-0.2-2l0.3,8.8
								c0.5-0.7,0.3-1.2,0.6-3c0.3,1.1,0.5,3.6,0.5,5.8c-0.3-3.9-0.7,0-1,1.7c0.1-0.3,0.3,0.3,0.4,0.2c-0.8,4.6,0.9,0.8,0.4,7
								l-0.2-0.3c0.1,2.3,0.4,4.5,0.4,7c-0.5,1-0.2-2.5-0.7-2.7c0,3.5,1,7,0.5,10.2c-0.1-1.5-0.2-3.7-0.3-5.2
								c-0.6,3.5-0.5,3.9-0.6,6.5l0-0.3l-0.3,6l0.2-1.5c1.4,4.4,0.3,9,1.2,15c-0.9-5.8-0.5-1-1.1-1.4c-0.2,1.5-0.4,3.8-0.5,3.2
								c0.5,2.8-0.4,4.7,0.3,8.7c-0.2,0.2,0,3-0.5,2.4c0.2,3.7,0.3-0.9,0.6-0.6c0.7,5.7-0.8,13.3,0.1,21.5c0.4,7,1,8.3,1.4,14.8
								c-0.3,2.2-0.7-1.8-0.7-1.8c-0.3,3.6-0.2,6.2,0,9.6c-0.2-0.7-0.3,0-0.5,1c0.1,2.7,0.7,1.8,0.4,5.3c-0.2-0.6-0.6-1.4-0.8-2.7
								c0.2,3.2,0.5,6.3,0.7,9.6c-0.3,0.9-0.5-2-0.7-3.1c0.2,3.7,0.3,9.5,0.8,10.7l0.2-2.4c0,1.3-0.5,0.7-0.6-0.3
								c-0.4-3.2,0.2-4.6,0.4-4.7l0.1,2.3c1.1-2.4-0.2-9.4-0.1-14.1l0.8,2l-0.7-4.8c0.2-1,0.7-1.7,0.8,0.6c0.4-3.4-0.3-3,0.2-5.9
								c0.1-0.3,0.1-0.2,0.1,0.1l-0.2-3.3c0.2,0.6,0.6-0.5,0.5,1.5c0.5-5.9-0.6-9.5,0-11.7l0.1,0.5c-0.3-8.2-0.6-0.8-1.3-6.9
								l1.5-4.1l-0.6-0.8c0-0.8,0.1-2.5,0.3-2.2c-0.4-3.1-0.3,0.5-0.7-1.3c0.6-4.1-0.3-11.2,0.7-12.1c-0.5-1.5-0.4,3.9-0.7-0.5
								c1-1.2-0.2-5,0.3-8.7c0.5,1.1,0.3,4.7,0.7,0.9c-0.9-2.2,0.2-7.2,0-10.4c-0.7-0.1-0.3-6.8-0.5-12.1c0.2,0.3,0.4-9.9,0.7-14.8
								l0.1,0.1c-0.7-0.9-0.6-6-0.7-9.7c0.4,0.1,0.6,0.8,0.8,2.8l0-3.5c-0.2-0.8-0.4-1.9-0.4-4.1l0.5,0.9c0-4.6-0.6-9.3-0.3-15.2
								c-0.5-0.3-1.4,4.7-1.8-1.6c0.3-0.2,0.8-0.5,0.9,1.2c0-0.5-0.2-1.9-0.1-3l0.5,2.5c0.2-2.7-0.4-1.4-0.3-3.6
								c0.4,0,0.3-1.6,0.6-1.3c0,0.5-0.2,1.9,0,2.7c0.1-2.4,0.3-5.4,0.6-6.3c-0.2,0.2-0.5,0-0.6-1.8c0-4.6,0.5-1.6,0.7-4.3
								c-0.3-1.1,0-4-0.6-4.1c0-1.3,0.3-1.6,0.4-2.1c-0.3-2.4-0.1-11.1-0.7-8.4l0,0.6c0-0.1,0-0.2,0-0.4c0,0,0,0,0,0v0
								c-0.1-1.6-0.2-3.3-0.2-5c0-0.9,0-1.8,0-2.6c0-1,0-2,0-3c-2.6-0.1-5.1-0.1-7.7-0.2c-2.3-0.1-4.6-0.1-6.9,0l0-0.2
								c-4.6,0.2-10.3,0.1-13.6,0.6c-1.4,0-3.2-0.4-2.6-0.6c-3.5,0.1-3.9,0.4-9,0c3.6-0.3-1.2-0.3,3.6-0.3
								c-4.6-0.2-5.6-0.5-10.6,0.1c1.7-0.5-3.5-0.6-5.6-0.5l3.2,0.4c-2.5,0.1-4.6,0-6.8,0l1.2-0.7c-9.4-0.8-16.9,1.4-24.1,0
								c-2.5,0.5,5.1,0.3,2.9,0.9c-4.3-0.1-8.8-1-10.2-1c-5.9-0.4-5.5,1-11.7,0.7c0.8,0.2,1.5,0.9-3.1,1.1c-4.3-0.1-5.3-1-2.6-1.2
								c1,0,1.5,0.1,1.5,0.1c1.4-0.1,3.2-0.2,1.5-0.4l-0.6,0.2c-2.1-0.2-8.1-0.2-6.7-0.6c-3.3,0.2-1.4,0.4,1,0.5
								c-5.5-0.3-8.7,0-14.4-0.2c0.9,0.1,1.7,0.4,0.8,0.4c-8.4-0.3-3.7,0.5-9.4,0.6c-3.2-0.4,1.2-0.9-4.6-0.6
								c-3.5-0.2-0.7-0.6,0.6-0.8c-5.2,0.5-9.7-0.3-12.7-0.4l2.7-0.2c-1.6,0.1-3,0.1-4.3,0.1l1.6,0.5c-1.6-0.1-3-0.1-2.9-0.3
								c-1.7,0.3,1.3,0.8-2,1.2c-2.1-0.2-6.5,0.3-7.3-0.4c6.7,0.2-0.7-0.6,5-0.7c-1.1,0.1-2.4,0.1-4.1,0c-0.2-0.1,0.2-0.1,0.7-0.2
								c-6.5-0.6-3,0.7-9.7,0.7c0.8-0.4-1.6-0.7-2.6-0.6c2.7,0,1.3,0.6-1.2,0.9c-4.3-0.3-4.7,0.2-6.9,0.2l2.6,0.1
								c-0.9,0.4-3,0.3-6,0.4c-0.3-0.3,2.7-0.2,1.6-0.3c-3.3,0.6-7.5-0.6-12.1-0.2c-2.1-0.2-0.2-0.7-2.1-0.8
								c-5.2,0.5-5.6-0.5-11.1-0.1c1.6,0.5,1.8,0.4-2,0.8l9-0.3l-5.8,0.7c2.7,0,5.7-0.3,7.3-0.2c-2.7,0.4-2.5,0.3-1.2,0.7
								c-3.7-0.7-7.3,0.4-11.6-0.1l0.1-1.2c-6.4-0.5-11.4,0.6-19.8,0.3l2.7,0.2c-1.1,0.5-5.2,0.1-7.9,0.3c0.3-0.4-1.4-0.5-2.6-0.8
								c0.1,0.3-6.1,0-6.9,0.8l-3.7-0.5c-6.7-0.2-7.7,1.1-14.2,1c2-0.4-1-0.7,3.4-1c-2.2,0-4.1-0.1-4.1,0.2c-1.3-0.2-6,0.5-8,0.2
								c-0.9,0.2-1.2,0.6-3.6,0.6c-0.3-0.1,0-0.2,0-0.2c0,0.2-3.8,0.3-1.7,0.7c-6.7-1.2-18.6,0.1-24.4-1c-4.7,0.1-10.4,0.3-14.7,0.3
								c0.3-0.1,0-0.2,0.8-0.2c-5.9-0.4-3.6,1.1-10.4,0.7c-3.4-0.6,3.6-0.3,1.4-0.6c-0.9-1.3-8.1,0.2-12.7-0.6l1.1-0.1
								c-3.5-0.4-8.5,0.5-14.1,0.4c0,0,0.3-0.1,0-0.2c-3.9,0.7-11.2,0.9-16.6,1.1c1.7-0.5,2.5-0.3,1.4-0.8c-2.4,0.1,0.7,0.8-4.2,1
								c-1.6-0.3-5.1-0.5-5.6-1.1l4.6,0c-2.4-0.7-5.9,0-8.4-0.1l0.3-0.3c-7,0.1-7.1,0.9-14.7,0.8l0.8,0.2c-4.1,0.8-3.5-0.4-7.6,0.1
								l-1.2-0.8c-2.7,0.2-9.6,0.8-14.5,0.9c2.8-0.6,8.5-0.9,12-1.2c-2.7,0-9.2,0.1-10.6,0.4c1.1-0.1,2.5-0.3,3.5-0.1
								c-3.3,0.6-7.7,0.9-13.1,0.9c0.3-0.5-1.1-0.7-3.2-0.8c-1.1-0.1-2.3-0.1-3.7-0.1c-1.9,0-3.8,0-5.7-0.1c0,1.1,0,2.1-0.1,3.1
								c0,0.5,0,1,0,1.5c0,0.2,0,0.4,0,0.5c0,0.2,0,0.3,0,0.5c-0.1,1.2-0.2,2.2-0.4,2.9c0.6,9.5-0.2,18.9-0.2,30
								c1.2-3.9,0,3.2,1.3,2.6c0.1,2.6,0.1,3.6,0,3.8l-0.7,7.8c-0.4,1.9-0.3-2.5-0.5-2.2c-0.1,5.7-0.5,2.4-0.8,6.1
								c0.4-0.8,0.6,2,0.5,5.2l0.6-4.5c0.7,7.9-1,6.8-0.4,14.8L256,786c0.2,4.1,0,15.1,1,19.1c-0.1,0.7-0.5,1.7-0.6-0.1
								c-0.1,9.8,1,21.8,0.4,29.4l-0.3-0.7c0.1,1.8,0.6,3.2,0.3,5.5c-0.1-0.1-0.3-0.7-0.3,0.1c0.1,1,0.5,4.9,0.3,7.3l-0.3-2.1
								c-0.4,9.5,0.8,14.7,1,22.7c-0.9,0-1.2,7.5-1.3,11.2l-0.1-0.1c-0.1,11.1,0.7,18.9,1.1,29.2c-0.2,1.2-0.3,2.8-0.4,4.6
								c0,0.4,0,0.9-0.1,1.4c0,0.5,0,1,0,1.5c0,1.7,0,3.6-0.1,5.5c4.2,0,8.8,0.1,13.2,0.1c3.7,0,7.3,0.1,10.5,0.3
								c-1.6-0.2,0.3-0.7,2.1-0.8c2.4,0.2,6.7-0.6,6.3,0.2l-0.9,0c1.8,0.8,6.8,0.6,10.6,0.6l0.6-1.1c10.1,1.5,26.5-0.6,32,0.8
								c2.4-0.3,5.5-0.3,7.9-0.5l-0.1,0.6c6.8,0.1,10.1,0.2,18.5,0.1l-1.7,0.4c4.7,0,6-1.6,10.3-1.7l1.3,0.8c8.2,0,16.6,0.7,24.7,0
								c-0.1,0.1-0.4,0.4-1.7,0.4c3.9,0,15,0.6,13.6-0.6c0.1,0.8,8.5,0.1,12.9-0.3l-0.7,0.6c3.8-0.7,3.9-0.9,9.1-1.1
								c1.2,0.1,1.1,0.4-0.6,0.3c4.1,0.3,3.2-0.5,8.2-0.2l-1.9,0.4c4.3,0,3.9-0.1,6.3-0.6c2.7-0.2,8.1,0.1,8.7,0.6
								c0.6-0.3,2.9-0.7,5.4-0.6c0.3,0.2-0.6,0.3-1,0.4c7.1,0.4,10.6-0.6,15.5-0.1c0.1,0.2,0.4,0.3,0.8,0.3c-5.7,0-10.2,0-9.8-0.1
								c0,0.5,4.6,0.6,0.9,1.3c3.7-0.4,9.9-1.2,14.4-1c0.2,0,0.4,0.1,0.6,0.2l-0.5,0.1c1,0.1,1.9,0,2.8-0.1c1.4,0.1,2.3,0.1,3.7,0.2
								c0.5,0.4,5.2,0.2,7.5,0.2c-0.2-0.6,2.8-0.5,0-0.9c0.4,0-0.4,0.1-1.9,0.1c-0.3,0-0.7,0-1,0.1c0,0,0.1,0,0.2,0
								c-1.5,0-3.4,0-5.7,0c1.8-0.3,3.7-0.5,6.2-0.2c1.2-0.4,2.5-0.7,3.2-0.9c3.1,0.8,9.1,1.2,10,1.7c7-0.3,16.4-0.2,20.7-1.3
								c2-0.1,2.3,0.3,3,0.5c-1.1,0.1-2.5,0.1-3.1,0.2c4-0.3,11.7-0.1,12.7-0.8c5,0.3-2.8,0.7,4,0.6l-0.9,0.2
								c13.5,1.2,21.9-1.9,36.8-0.4c-1-0.1-1.6-0.1-1.8-0.3c17,0.7,35.1-0.6,51.9,0.4c4.8,0.2,5.3-0.3,8.2-0.6l1,0.6l5-0.7
								c7.1-0.5,12.2,1.5,21.2,0.5l-1.2-0.4c3.2,0.1,10.2-0.2,9.6,0.2c0.3-0.1,1.1-0.4,2.3-0.2l0.1,0.3l7.9-0.5c6.1,0.2-1,1.3,8,1.3
								c3.3-0.1,9.4-0.9,8.2-1.1c-1.3,0-3.4-0.2-3.5-0.5l3-0.2c0.5-0.9,2.9-1.9-4.6-2.5l-5.2,0.6l-1.7-0.5l4.4,0
								c-2.5-0.4-4,0-5.8,0.2c-0.4-0.2-1.1-0.4-2.2-0.5l-5.1,0.9c-0.6-0.4,2.3-0.7-1.1-0.9c-2.4,0.4,2.3,0.8-1.7,1.1
								c-2.5-0.4-1.8-0.8-4.7-0.4c-0.4-0.2,0.2-0.4,1.4-0.5c-2.6,0.3-6.9,0.1-8.2,0.6c-2.6-0.5-8.8,0.1-8.5-0.7
								c-0.8,0.2-4.6,0.7-7,0.7c4.4-1.1-8.9-0.1-7.8-1.2c-3.2,0.9-11.6,0.4-17.3,0.9c0.3-0.1,0.9-0.2,1.4-0.2
								c-3.2-0.1-4.1-0.4-6.2-0.5c-0.4,0.8-5.4,1-8.1,1.4c-3.9-0.8,2.4-0.9,1.2-1.6c0.2,0.6-6.8,0.6-5.5,1.2c-3-0.5-2.6-0.2-4.1-0.9
								c-0.5,1-2.8,0.2-5.3,0.8c-4.4-0.5-1.1-0.9-5.9-0.6C580.5,915.2,584.8,914.8,584.8,914.8z M471,916.5
								C471,916.5,471,916.5,471,916.5c1,0,1.8,0,2.3,0C472.8,916.5,472.2,916.5,471,916.5z M461.4,916.5c1.2,0,2.6,0,4.1,0
								c0.3,0.2,0,0.4-1,0.4C465.1,916.8,462.8,916.7,461.4,916.5z M481.6,920.4c-1.5,0.1-2,0-2.2-0.1c0.7,0,1.6,0,2.6-0.1
								c0,0,0.1,0,0.2-0.1C482.1,920.3,481.9,920.4,481.6,920.4z"/>
							<path class="st1" d="M484.4,919.7c0.2,0,0.3,0,0.6,0c-0.3,0-0.6-0.1-0.9-0.1c-0.2,0.1-0.4,0.1-0.5,0.2
								C483.8,919.7,484.1,919.7,484.4,919.7z"/>
							<path class="st1" d="M691.8,727.8l0-0.2c0,0.2,0,0.3-0.1,0.4C691.8,727.9,691.8,727.9,691.8,727.8z"/>
							<polygon class="st1" points="329.3,915.5 329.3,915.6 330.2,915.5 							"/>
							<path class="st1" d="M689.9,780.5c0,0.1-0.1,0.3-0.1,0.7C689.8,781.1,689.9,780.8,689.9,780.5z"/>
							<path class="st1" d="M689.8,803.2l-0.2,3.2C689.7,805.1,689.7,804.1,689.8,803.2z"/>
							<path class="st1" d="M689.5,820.7c0.1,0.2,0.2,0.3,0.2,0.3c0,0,0,0,0,0L689.5,820.7z"/>
							<path class="st1" d="M515.5,720.2c-0.2,0-0.5,0-0.7,0C513.2,720.3,514.3,720.3,515.5,720.2z"/>
							<path class="st1" d="M598.3,718.9c-0.9,0.1-1.7,0.2-2.7,0.3C597.1,719.2,598.2,719.2,598.3,718.9z"/>
							<path class="st1" d="M423,720.9C423.1,720.9,423,720.9,423,720.9c-0.2,0-0.4,0-0.6,0L423,720.9z"/>
							<path class="st1" d="M591.8,719.1c1.5,0.1,2.7,0.1,3.8,0C594.4,719.1,593,719,591.8,719.1z"/>
							<path class="st1" d="M689.2,896.6l0,0.8c0,0,0.1,0,0.1,0.1L689.2,896.6z"/>
							<path class="st1" d="M689.3,897.5l0.1,0.9C689.4,898,689.4,897.7,689.3,897.5z"/>
							<path class="st1" d="M689.5,900.4l-0.1-2C689.4,899.1,689.4,900,689.5,900.4z"/>
							<path class="st1" d="M689.5,873.4l-0.2-0.3C689.3,873.3,689.4,873.4,689.5,873.4z"/>
							<path class="st1" d="M689.4,866.4c0,1.7-0.4,4.2-0.3,6.6l0.2,0.2C689,872,689.8,868,689.4,866.4z"/>
							<path class="st1" d="M692,837l-0.2,5.9c0.2-1,0.5-2.4,0.6,0.3C693,835.8,691.9,844.7,692,837z"/>
							<path class="st1" d="M692.3,818.7c0.1,3.2,0.3,0,0.4,0.1C692.5,816.8,692.5,816.3,692.3,818.7z"/>
							<path class="st1" d="M659.5,716.7l0.3-0.5C657.4,716.3,659.8,716.4,659.5,716.7z"/>
							<polygon class="st1" points="634.2,719.4 636.6,719.7 637.7,719.2 							"/>
							<polygon class="st1" points="619.3,715.7 620.4,715.7 616.3,715.9 							"/>
							<path class="st1" d="M397.3,715.9l0.7,0.6C399.7,716.4,400.1,715.7,397.3,715.9z"/>
							<path class="st1" d="M301.5,716.6c-1-0.3-3.7-0.5-5.4-0.2C298.3,716.4,300.4,716.6,301.5,716.6z"/>
							<polygon class="st1" points="303.9,920.5 302,920.7 305.6,920.5 							"/>
						</g>
					</g>
				</g>
			</g>
		</g>
		<rect x="395.1" y="789.9" class="st2" width="159.9" height="56.2"/>
		<text transform="matrix(1 0 0 1 395.0651 836.8175)" class="st3 st4 st5">Client</text>
	</g>
	<g>
		<g>
			<rect x="258.1" y="162" class="st6" width="508" height="200"/>
			<g>
				<g>
					<g>
						<g>
							<path class="st1" d="M764.7,362c0.2,0.7,0.6,0.3,0.5-1.7l-0.7-1.5L764.7,362z"/>
							<path class="st1" d="M765.9,348.2c-0.3-2.4-0.9-5.2-1.5-3.6c0.6,2.4,0.4,3,1.1,5.5c0.1,2.1-0.2,3.6-0.5,3.2
								c0.2,0.7-0.1,3.2,0.3,4.3c0.5-2.7,0.5-6.1,0.1-9.6C765.6,347.2,765.8,348,765.9,348.2z"/>
							<path class="st1" d="M751.4,161l1.3,0.1C752.3,161.1,751.9,161.1,751.4,161z"/>
							<path class="st1" d="M627,160.7c0.9,0,1.3-0.1,1.4-0.1C627.5,160.6,626.8,160.6,627,160.7z"/>
							<path class="st1" d="M605.8,160c0.5,0,0.8,0,1.3,0C606.5,159.9,606.1,159.9,605.8,160z"/>
							<path class="st1" d="M751.4,161l-3.3-0.2C747.9,161.1,749.8,161,751.4,161z"/>
							<path class="st1" d="M764.3,320.5c0,0.7,0.1,1.3,0.2,1.8c0-0.6,0-1.1-0.1-1.7C764.4,320.5,764.4,320.5,764.3,320.5z"/>
							<path class="st1" d="M767.5,202.2l0,1c0.1,0.3,0.2,0.6,0.3,0.8L767.5,202.2z"/>
							<path class="st1" d="M767.6,244.3c0-1-0.5-1.3-0.8-1.6c0.2,0.5,0.3,1.2,0.4,2.1C767.3,244.7,767.4,244.6,767.6,244.3z"/>
							<path class="st1" d="M766.6,311l0.1,1.2C766.7,311.9,766.6,311.4,766.6,311z"/>
							<path class="st1" d="M767.6,172.1c0.1-0.1,0.2-0.2,0.2-0.4C767.7,171.7,767.7,171.8,767.6,172.1z"/>
							<path class="st1" d="M717.2,359.3c0,0,0,0.1,0,0.1C717.5,359.4,717.6,359.3,717.2,359.3z"/>
							<path class="st1" d="M766,362.1l-0.7,0c-0.1,0.1-0.1,0.2-0.1,0.3L766,362.1z"/>
							<path class="st1" d="M566.9,159.2c0.1,0,0.1,0,0.2,0C568.1,159.2,567.5,159.2,566.9,159.2z"/>
							<path class="st1" d="M255.7,210c0.5-4,0.6,6.6,1.2,0.5C256.7,211.1,256.1,205,255.7,210z"/>
							<path class="st1" d="M764.4,319.4c0-0.6,0-1.1,0-1.7C764.4,318.4,764.4,319,764.4,319.4z"/>
							<path class="st1" d="M256.9,210.5L256.9,210.5l0.1-0.6C257,210.1,257,210.3,256.9,210.5z"/>
							<path class="st1" d="M477.3,159.6c0.2,0.1,0.5,0.2,0.9,0.2C478.2,159.8,478,159.7,477.3,159.6z"/>
							<path class="st1" d="M544,160.4l-1.7-0.1C543,160.3,543.6,160.4,544,160.4z"/>
							<path class="st1" d="M442.7,160.4c-0.9,0-1.2-0.1-2.4,0c0.1,0,0.2,0,0.4,0.1C441.1,160.3,441.6,160.3,442.7,160.4z"/>
							<path class="st1" d="M406.6,160.4c0.2,0,0.4,0.1,0.7,0.1c0.4,0,0.8,0,1.1,0L406.6,160.4z"/>
							<path class="st1" d="M607.6,359.6c0.8,0.2,1.3,0.3,1.7,0.5C608.7,359.7,614,359.6,607.6,359.6z"/>
							<path class="st1" d="M764.6,320.4c-0.1-0.2-0.2-0.5-0.2-1.1c0,0.4,0,0.8,0,1.2C764.5,320.7,764.6,320.7,764.6,320.4z"/>
							<path class="st1" d="M441.2,164.8l-5.7-0.1C437.1,164.8,439.2,164.8,441.2,164.8z"/>
							<path class="st1" d="M348.9,359.7l1.3-0.1C349.7,359.6,349.3,359.6,348.9,359.7z"/>
							<path class="st1" d="M418.5,164.8c-1-0.2-2.1-0.3-3.2-0.4c-0.2,0-0.5,0.1-0.7,0.1L418.5,164.8z"/>
							<path class="st1" d="M609.3,360.1C609.3,360.1,609.3,360.1,609.3,360.1C609.3,360.1,609.3,360.1,609.3,360.1z"/>
							<path class="st1" d="M647.1,358.8c-5.5,0-2.6,0.7-3.7,1.1c-6.5,0.2-3-0.5-5.2-0.9c-4.1,0.2-7.2,0.9-10.2,0.8
								c-0.2-0.1-0.8-0.2-0.1-0.3c-4.3,0.6-12.8,0-17.8,0.8c-0.4-0.1-0.6-0.1-0.7-0.2c0.8,0.4,0.9,0.7,0.8,1c-2.4,0-4.5,0.5-5.5,0
								c1.5,0,1.6-0.2,2.3-0.3l-2.6,0.2c-2.3-0.7,3.5-0.2,3.5-0.8c-5,0.2-10.8,0.8-14.7,0.6c-0.8-0.7,9-0.2,3.8-0.8l5.9,0.3
								c-4.5-1.1,3.6,0.1-0.6-1.1c-7.8-0.2-8.7,0.3-16.5,0.1c-1.8,0.4,0.6,0.6-1.2,0.9c-11.1,0.7-8.7-1.7-16.8-0.8
								c-2.1,0.5-2.9,1.3-8.7,0.9l2-0.8c-7.6-0.1-4.3,1.1-12.2,0.6c1.4-0.3,5.9-0.3,4.8-0.3c-5.1-0.6-3.6,0.4-7.6,0.4l-0.8-0.7
								c-8,0.1-16.9,0.6-25.8,0.7c0.5-0.2,2-0.4-0.1-0.6c-11.2,0.3-24-0.1-34.8-0.5l-4.1,0.6c-1,0-1.8-0.3-0.7-0.4
								c-4.2-0.2-0.2,0.4-2.2,0.6c-2.4,0-3.2-0.3-1.7-0.5c-7.5,0.5-21.2,1.1-29.1,0.4l1.5-0.2c-6.1-0.2-6.9,1.2-12.6,0.7l1.1-0.1
								c-13.3-0.3-27.9,0.3-38.1-0.6c-1.9,0.8-13.1-0.4-14,0.8c-7.6-0.6-5.4-0.8-16.1-1.2c-2.8-0.1-4.2,0.7-7.8,0.9l-0.1-0.6
								l-4.8,0.6l-2.5-0.7l-3.3,0.2c1.3,0,2.8,0.3,2.6,0.5c-5.2,0.3-12.6-0.4-12.7-0.7l-12.2,0.5c0.3-0.2,2.3-0.3,3.9-0.5
								c-6.5,0.6-1.2-0.6-7.2-0.1c0.8,0.1-0.4,0.4-0.6,0.5c-3-0.4-9.8-0.4-14.8-0.2l1-0.4c-9.1-0.1-19.1,0.2-29.3,0.2
								c3.6,0.2,2.8,0.9-0.2,1l-1.2-0.7c-1.9,0.4,3.1,0.2-0.8,0.7c-3.8-0.1-2.6-0.7-0.4-1l-4.6,0.2c-0.3-0.2,0.8-0.3,1.1-0.5
								c-1.9,0.4-8-0.7-10.7,0L264,359c-1,0-1.9,0-2.8,0c-0.1,0-0.2,0-0.2,0c0-0.1,0-0.1,0-0.2l0-0.1l0,0l0-0.3c0-0.4,0-0.7,0-1.1
								c0-1.4,0-2.8-0.1-4.1c0-2.7-0.1-5.3-0.1-8.4c-0.6-0.2-0.4-3.4-0.9-5.9c0.2-6.1,0.6-12.8,0.6-20.2c-0.3-5.2-0.5-1.5-0.8-3.8
								c0.5-0.4,0.5-7.7,0.8-3.9c-0.1-8.8-0.1-11.2-0.5-22.4c-0.2,1.2-0.3,2.6-0.5,1.9c-0.1-2,0.2-4.6,0.5-4.3l0.1,0.5
								c-0.8-12.5,1.5-28.8,0.4-38.8l0.1,0.6l-0.6-10.3c0.1-4.7,0.4,2.8,0.7-0.7c-0.9-11.1,0.1-17.6-0.4-26.7
								c1.5-7.1-0.1-25.2,0.9-34.7l-0.4,0.6c-0.3-2.5,0.2-3,0.3-4.8c-0.3,0.3-0.3,2.7-0.5,1.1c0-1.8-0.1-3.6-0.1-5.5
								c0-1.1,0-2.2,0-3.3c3.6,0,7.3,0.1,11,0.1c4.5,0.1,9,0.2,13.5,0.3c9,0.2,18,0.4,26.9,0.6c7.9,0.1,4.5-1.8,14.4-1l-2.8,0.7
								c15.9-0.8,32.4,0,48-0.6c-0.9,0.2-1,0.4-2.5,0.3c3.3,0.5,12.1,0,12.2-0.4c2.4,0,0.6,0.4,2,0.6c3.3,0.3,8.3-0.6,10-0.1
								c0.3,0.1-0.9,0.2-1.5,0.2c2.1-0.2,10,0.1,7.9-0.5c5.8,0.3,11.1-0.2,15.8,0.1c3-0.6,10,0.3,10.9-0.6
								c-0.4,0.9,10.2,0.7,13.9,0.3c-1.2,0.3,3.2,0.3,1.8,0.7c4.2,0,8.1-0.2,7.3-0.6c7.7,1.1,15.6-0.9,19.9,0.5
								c12.5-0.5,24-0.8,35.3-1c-0.4,0.9-12.4,0.1-11.9,1c10.7-0.4,16.8-1.1,27.4-0.9c2.7,0.1-1.6,0.4-2.5,0.5
								c10.6-0.4,20.6,0.1,30.1-0.4c0,0.1-1,0.2-2,0.2c1.9,0,4.3,0.1,4.1-0.3l-1.8,0.1c-3-0.6,7.4-1.2,7.7-1.6
								c-3.2,1.2,9.4,0.3,4.3,1.8c1.2-0.1,2.8-0.3,2.5-0.5c1.8,0.1,2.4,0.2,0.6,0.6c6.7-0.2,4.3-0.7,10.4-0.6c0,0.2-1.2,0.3-1.9,0.5
								c3.1-0.4,6.2-0.8,11.3-0.6c-0.3,0.1,0.3,0.3-1.2,0.3c8.8-0.1,15-1,24.6-0.7c-2.8,0.9,3.3,0.3,3.8,1l5.2-0.2l-2.1-0.4
								c4.5,0,8.6-0.5,12.5-0.3l-3.4,0.3l8.5-0.1l-4.8-0.3c4.6-0.4-0.5-0.9,5.6-0.7c-1.2,0.1,4.5,0,6.9,0.4l0,0
								c2.2-0.2,4.6-0.5,7.9-0.3c0.9,0.2-0.7,0.8-0.1,1c2.2-0.6,10.6-0.2,13.5-0.8c-0.9,0.2-1,0.5-0.7,0.6l1.9-0.5
								c2.1,0.2,2.4,0.2,2.1,0.6c6.3,0.1-2-0.9,5.5-0.5c-0.6,0-0.3,0.1-1.5,0.2c7.5,0.2,14.6-0.3,21.5-0.1c2,0.8-6.1,0.2-3.7,0.8
								c10-0.1,20.7-0.9,30.4-0.7l-1.8-0.1c1.3-1.1,7.2,0.5,12.1,0c-1.2,0.1-1.6,0.6-1.2,0.5c6.6,0.2,13.6-0.3,23.6-0.6l-1.2,0.3
								c3.9,0.2,10.3,0.1,14.5,0.3c0.6-0.1,1.6-0.2,2.1-0.3c0.4-0.1,0.6-0.2,0.1-0.4c0.8,0.1,1.5,0.2,2.1,0.3c0,0.5-0.1,1-0.1,1.5
								l0,0.7l0,1.1c0,1.4,0,2.9,0,4.3c0,2.8,0.2,5.6,0.3,8.4c0.2,5.5,0.4,10.9-0.2,16.2c0-1.4-0.2-3.3-0.2-2.2l0.3,9.8
								c0.5-0.8,0.3-1.3,0.6-3.4c0.3,1.2,0.5,4,0.5,6.5c-0.3-4.4-0.7,0-1,1.9c0.1-0.3,0.3,0.3,0.4,0.2c-0.8,5.1,0.9,0.9,0.4,7.9
								l-0.2-0.4c0.1,2.6,0.4,5,0.4,7.9c-0.5,1.2-0.2-2.8-0.7-3c0,4,1,7.8,0.5,11.4c-0.1-1.7-0.2-4.1-0.3-5.8
								c-0.6,3.9-0.5,4.4-0.6,7.3l0-0.3l-0.3,6.7l0.2-1.7c1.4,5,0.3,10.1,1.2,16.8c-0.9-6.5-0.5-1.1-1.1-1.6
								c-0.2,1.7-0.4,4.3-0.5,3.6c0.5,3.2-0.4,5.3,0.3,9.8c-0.2,0.2,0,3.4-0.5,2.7c0.2,4.1,0.3-1,0.6-0.6c0.7,6.3-0.8,14.9,0.1,24
								c0.4,7.9,1,9.3,1.4,16.6c-0.3,2.5-0.7-2-0.7-2c-0.3,4-0.2,7,0,10.7c-0.2-0.8-0.3,0-0.5,1.2c0.1,3,0.7,2,0.4,6
								c-0.2-0.7-0.6-1.6-0.8-3c0.2,3.5,0.5,7,0.7,10.7c-0.3,1-0.5-2.2-0.7-3.5c0.2,4.1,0.3,10.7,0.8,12l0.2-2.6
								c0,1.5-0.5,0.8-0.6-0.3c-0.4-3.5,0.2-5.1,0.4-5.3l0.1,2.6c1.1-2.7-0.2-10.5-0.1-15.8l0.8,2.2l-0.7-5.4
								c0.2-1.1,0.7-1.9,0.8,0.7c0.4-3.8-0.3-3.3,0.2-6.6c0.1-0.4,0.1-0.2,0.1,0.1l-0.2-3.7c0.2,0.7,0.6-0.6,0.5,1.7
								c0.5-6.6-0.6-10.7,0-13.2l0.1,0.6c-0.3-9.2-0.6-0.9-1.3-7.8l1.5-4.6l-0.6-0.9c0-0.9,0.1-2.8,0.3-2.5
								c-0.4-3.5-0.3,0.6-0.7-1.4c0.6-4.6-0.3-12.6,0.7-13.6c-0.5-1.6-0.4,4.4-0.7-0.5c1-1.4-0.2-5.6,0.3-9.8
								c0.5,1.3,0.3,5.2,0.7,1.1c-0.9-2.5,0.2-8.1,0-11.6c-0.7-0.2-0.3-7.6-0.5-13.5c0.2,0.4,0.4-11.1,0.7-16.6l0.1,0.2
								c-0.7-1.1-0.6-6.7-0.7-10.8c0.4,0.2,0.6,0.9,0.8,3.1l0-3.9c-0.2-0.9-0.4-2.1-0.4-4.6l0.5,1c0-5.2-0.6-10.4-0.3-17
								c-0.5-0.4-1.4,5.3-1.8-1.7c0.3-0.3,0.8-0.5,0.9,1.3c0-0.6-0.2-2.1-0.1-3.4l0.5,2.8c0.2-3-0.4-1.6-0.3-4
								c0.4,0,0.3-1.8,0.6-1.4c0,0.6-0.2,2.1,0,3c0.1-2.7,0.3-6,0.6-7.1c-0.2,0.2-0.5,0-0.6-2c0-5.2,0.5-1.8,0.7-4.8
								c-0.2-1-0.1-3.4-0.2-4.8c-1.1,0-1.9,0.1-2.1,0.4c-1,0-1.6-0.1-2-0.2c-0.2,0-0.4-0.1-0.6-0.1c-0.1,0-0.3-0.1-0.4-0.1
								c-2.7,0.3-12.5,0.1-9.4,0.7l0.7,0c-0.1,0-0.3,0-0.4,0c0,0,0,0,0,0h0c-8.7,0.6-18.2-0.3-26.8-0.1l0-0.2
								c-5.2,0.2-11.5,0.1-15.2,0.6c-1.5,0-3.6-0.4-3-0.6c-4,0.1-4.4,0.4-10.1,0c4-0.3-1.4-0.3,4.1-0.3c-5.1-0.2-6.3-0.5-11.8,0.1
								c1.9-0.5-3.9-0.6-6.3-0.5l3.6,0.4c-2.7,0.1-5.2,0-7.6,0l1.3-0.7c-10.5-0.8-19,1.4-27,0c-2.8,0.5,5.7,0.3,3.2,0.9
								c-4.8-0.1-9.9-1-11.4-1c-6.6-0.4-6.2,1-13.1,0.7c0.9,0.2,1.7,0.9-3.5,1.1c-4.8-0.1-6-1-2.9-1.2c1.2,0,1.7,0.1,1.7,0.1
								c1.6-0.1,3.6-0.2,1.7-0.4l-0.6,0.2c-2.4-0.2-9.1-0.2-7.5-0.6c-3.7,0.2-1.6,0.4,1.1,0.5c-6.2-0.3-9.7,0-16.1-0.2
								c1,0.1,2,0.4,0.9,0.4c-9.4-0.3-4.1,0.5-10.5,0.6c-3.6-0.4,1.3-0.9-5.1-0.6c-3.9-0.2-0.8-0.6,0.7-0.8
								c-5.8,0.5-10.9-0.3-14.2-0.4l3.1-0.2c-1.8,0.1-3.3,0.1-4.9,0.1l1.8,0.5c-1.8-0.1-3.3-0.1-3.3-0.3c-1.9,0.3,1.4,0.8-2.3,1.2
								c-2.4-0.2-7.3,0.3-8.1-0.4c7.6,0.2-0.8-0.6,5.6-0.7c-1.2,0.1-2.7,0.1-4.5,0c-0.3-0.1,0.3-0.1,0.7-0.2
								c-7.2-0.6-3.3,0.7-10.8,0.7c1-0.4-1.7-0.7-3-0.6c3,0,1.4,0.6-1.3,0.9c-4.8-0.3-5.2,0.2-7.7,0.2l2.9,0.1
								c-1,0.4-3.4,0.3-6.7,0.4c-0.3-0.3,3-0.2,1.8-0.3c-3.7,0.6-8.4-0.6-13.6-0.2c-2.4-0.2-0.2-0.7-2.3-0.8
								c-5.8,0.5-6.3-0.5-12.4-0.1c1.8,0.5,2.1,0.4-2.2,0.8l10-0.3l-6.4,0.7c3,0,6.4-0.3,8.2-0.2c-3.1,0.4-2.8,0.3-1.3,0.7
								c-4.1-0.7-8.2,0.4-13-0.1l0.1-1.2c-7.2-0.5-12.8,0.6-22.2,0.3l3,0.2c-1.3,0.5-5.8,0.1-8.8,0.3c0.3-0.4-1.6-0.5-2.9-0.8
								c0.2,0.3-6.9,0-7.7,0.8l-4.2-0.5c-7.6-0.2-8.6,1.1-15.9,1c2.2-0.4-1.1-0.7,3.8-1c-2.4,0-4.6-0.1-4.6,0.2
								c-1.4-0.2-6.7,0.5-9,0.2c-1,0.2-1.4,0.6-4.1,0.6c-0.3-0.1,0-0.2,0-0.2c0,0.2-4.3,0.3-1.9,0.7c-7.5-1.2-20.9,0.1-27.4-1
								c-5.3,0.1-11.7,0.3-16.5,0.3c0.3-0.1,0-0.2,0.9-0.2c-6.6-0.4-4.1,1.1-11.6,0.7c-3.9-0.6,4-0.3,1.6-0.6
								c-1-1.3-9.1,0.2-14.2-0.6l1.2-0.1c-3.9-0.4-9.5,0.5-15.8,0.4c0,0,0.3-0.1,0-0.2c-4.3,0.7-12.5,0.9-18.6,1.1
								c1.9-0.5,2.8-0.3,1.6-0.8c-2.7,0.1,0.8,0.8-4.7,1c-1.8-0.3-5.7-0.5-6.2-1.1l5.1,0c-2.6-0.7-6.7,0-9.4-0.1l0.3-0.3
								c-7.9,0.1-8,0.9-16.5,0.8l0.9,0.2c-4.6,0.8-3.9-0.4-8.5,0.1l-1.4-0.8c-3.1,0.2-10.7,0.8-16.2,0.9c3.1-0.6,9.5-0.9,13.5-1.2
								c-3,0-10.3,0.1-11.9,0.4c1.2-0.1,2.8-0.3,4-0.1c-3.7,0.6-8.6,0.9-14.6,0.9c0.4-0.5-1.2-0.7-3.6-0.8c-1.2-0.1-2.6-0.1-4.1-0.1
								c-2,0-4.1,0-6.2-0.1c0,1.2,0,2.4-0.1,3.5c0,0.5,0,1.1,0,1.6c0,0.4,0,0.7-0.1,1c-0.1,1.3-0.2,2.5-0.4,3.2
								c0.6,10.7-0.2,21.2-0.2,33.6c1.2-4.4,0,3.6,1.3,2.9c0.1,2.9,0.1,4,0,4.3l-0.7,8.8c-0.4,2.1-0.3-2.8-0.5-2.5
								c-0.1,6.3-0.5,2.7-0.8,6.9c0.4-0.9,0.6,2.2,0.5,5.8l0.6-5.1c0.7,8.9-1,7.7-0.4,16.6l-0.4-2.8c0.2,4.6,0,16.9,1,21.4
								c-0.1,0.8-0.5,1.9-0.6-0.1c-0.1,11,1,24.4,0.4,32.9l-0.3-0.8c0.1,2,0.6,3.6,0.3,6.1c-0.1-0.1-0.3-0.8-0.3,0.1
								c0.1,1.1,0.5,5.4,0.3,8.1l-0.3-2.3c-0.4,10.7,0.8,16.4,1,25.4c-0.9,0-1.2,8.4-1.3,12.6l-0.1-0.1c0,3.9,0,7.4,0.1,10.8
								c0.1,1.7,0.1,3.3,0.2,4.9c0.1,1.1,0.2,4.6,0.2,7.2c1.7,0,3.3-0.1,5-0.1c1.1,0,2.1-0.1,3.2-0.1c2-0.1,4.1-0.2,6.3-0.2
								c7.2,1,24.2,0.4,35.8,0.9c-1.8-0.2,0.3-0.7,2.3-0.8c2.7,0.2,7.5-0.6,7,0.2l-1,0c2,0.8,7.6,0.6,11.9,0.6l0.7-1.1
								c11.3,1.5,29.7-0.6,35.9,0.8c2.7-0.3,6.1-0.3,8.8-0.5l-0.1,0.6c7.6,0.1,11.4,0.2,20.7,0.1l-1.9,0.4c5.3,0,6.7-1.6,11.5-1.7
								l1.5,0.8c9.2,0,18.5,0.7,27.7,0c-0.1,0.1-0.4,0.4-1.9,0.4c4.3,0,16.8,0.6,15.2-0.6c0.1,0.8,9.5,0.1,14.5-0.3l-0.8,0.6
								c4.2-0.7,4.3-0.9,10.2-1.1c1.4,0.1,1.2,0.4-0.6,0.3c4.6,0.3,3.6-0.5,9.2-0.2l-2.1,0.4c4.8,0,4.4-0.1,7-0.6
								c3-0.2,9,0.1,9.7,0.6c0.6-0.3,3.3-0.7,6.1-0.6c0.4,0.2-0.6,0.3-1.2,0.4c8,0.4,11.9-0.6,17.3-0.1c0.1,0.2,0.5,0.3,0.9,0.3
								c-6.3,0-11.4,0-11-0.1c0,0.5,5.1,0.6,1,1.3c4.1-0.4,11.1-1.2,16.1-1c0.2,0,0.5,0.1,0.7,0.2l-0.5,0.1c1.2,0.1,2.2,0,3.2-0.1
								c1.6,0.1,2.6,0.1,4.1,0.2c0.6,0.4,5.9,0.2,8.4,0.2c-0.2-0.6,3.1-0.5,0-0.9c0.4,0-0.5,0.1-2.2,0.1c-0.4,0-0.8,0-1.1,0.1
								c0,0,0.1,0,0.2,0c-1.7,0-3.9,0-6.3,0c2-0.3,4.1-0.5,6.9-0.2c1.3-0.4,2.7-0.7,3.6-0.9c3.5,0.8,10.2,1.2,11.2,1.7
								c7.8-0.3,18.3-0.2,23.2-1.3c2.2-0.1,2.5,0.3,3.4,0.5c-1.3,0.1-2.8,0.1-3.5,0.2c4.4-0.3,13.1-0.1,14.2-0.8
								c5.6,0.3-3.1,0.7,4.5,0.6l-1,0.2c15.1,1.2,24.5-1.9,41.2-0.4c-1.2-0.1-1.7-0.1-2-0.3c19.1,0.7,39.3-0.6,58.1,0.4
								c5.3,0.2,5.9-0.3,9.2-0.6l1.2,0.6l5.6-0.7c7.9-0.5,13.7,1.5,23.7,0.5l-1.3-0.4c3.6,0.1,11.4-0.2,10.8,0.2
								c0.4-0.1,1.2-0.4,2.6-0.2l0.1,0.3l8.8-0.5c6.9,0.2-1.1,1.3,8.9,1.3c3.7-0.1,10.6-0.9,9.2-1.1c-1.5,0-3.8-0.2-3.9-0.5l3.4-0.2
								c0.6-0.9,3.2-1.9-5.1-2.5l-5.8,0.6l-1.9-0.5l4.9,0c-2.8-0.4-4.5,0-6.5,0.2c-0.5-0.2-1.3-0.4-2.4-0.5l-5.7,0.9
								c-0.7-0.4,2.6-0.7-1.3-0.9c-2.7,0.4,2.6,0.8-1.9,1.1c-2.8-0.4-2-0.8-5.2-0.4c-0.5-0.2,0.2-0.4,1.5-0.5
								c-2.9,0.3-7.7,0.1-9.2,0.6c-2.9-0.5-9.8,0.1-9.5-0.7c-0.9,0.2-5.1,0.7-7.8,0.7c4.9-1.1-10-0.1-8.7-1.2
								c-3.6,0.9-13,0.4-19.4,0.9c0.4-0.1,1.1-0.2,1.6-0.2c-3.6-0.1-4.6-0.4-7-0.5c-0.5,0.8-6.1,1-9.1,1.4c-4.4-0.8,2.7-0.9,1.3-1.6
								c0.2,0.6-7.7,0.6-6.2,1.2c-3.4-0.5-2.9-0.2-4.6-0.9c-0.6,1-3.1,0.2-5.9,0.8c-4.9-0.5-1.3-0.9-6.6-0.6
								C642.3,359.1,647.1,358.8,647.1,358.8z M519.5,360.5C519.5,360.5,519.5,360.5,519.5,360.5c1.1,0,2,0,2.6,0
								C521.6,360.4,520.9,360.5,519.5,360.5z M508.8,360.5c1.3,0,2.9,0,4.6,0c0.4,0.2,0,0.4-1.1,0.4
								C513,360.8,510.4,360.6,508.8,360.5z M531.5,364.4c-1.7,0.1-2.3,0-2.5-0.1c0.8,0,1.7,0,3-0.1c0,0,0.2,0,0.2-0.1
								C532,364.2,531.8,364.3,531.5,364.4z"/>
							<path class="st1" d="M534.5,363.6c0.2,0,0.4,0,0.7,0c-0.3,0-0.7-0.1-1-0.1c-0.2,0.1-0.4,0.1-0.6,0.2
								C533.9,363.6,534.3,363.6,534.5,363.6z"/>
							<path class="st1" d="M752.9,161.1l-0.2,0c0.2,0,0.4,0,0.5,0.1C753,161.2,753,161.2,752.9,161.1z"/>
							<polygon class="st1" points="360.9,359.4 360.9,359.5 361.8,359.4 							"/>
							<path class="st1" d="M764.9,207.9c0,0.1-0.1,0.3-0.1,0.8C764.8,208.6,764.9,208.3,764.9,207.9z"/>
							<path class="st1" d="M764.8,233.4l-0.2,3.6C764.7,235.4,764.8,234.3,764.8,233.4z"/>
							<path class="st1" d="M764.5,253c0.1,0.2,0.2,0.3,0.2,0.4c0,0,0,0,0,0L764.5,253z"/>
							<path class="st1" d="M545.4,164.1c-0.3,0-0.5,0-0.8,0C542.9,164.3,544.1,164.2,545.4,164.1z"/>
							<path class="st1" d="M638.1,162.8c-1,0.1-2,0.2-3,0.3C636.8,163.1,638.1,163.1,638.1,162.8z"/>
							<path class="st1" d="M441.8,164.8C441.8,164.8,441.8,164.8,441.8,164.8c-0.2,0-0.4,0-0.6,0L441.8,164.8z"/>
							<path class="st1" d="M630.8,163.1c1.7,0.1,3,0.1,4.3,0C633.8,163,632.2,163,630.8,163.1z"/>
							<path class="st1" d="M764.3,337.9l0,0.9c0,0,0.1,0,0.1,0.1L764.3,337.9z"/>
							<path class="st1" d="M764.3,339l0.1,1C764.4,339.6,764.4,339.1,764.3,339z"/>
							<path class="st1" d="M764.5,342.3l-0.1-2.2C764.4,340.8,764.4,341.8,764.5,342.3z"/>
							<path class="st1" d="M764.5,312l-0.2-0.3C764.4,311.9,764.4,312,764.5,312z"/>
							<path class="st1" d="M764.5,304.1c0,1.9-0.4,4.7-0.3,7.3l0.2,0.2C764,310.5,764.8,305.9,764.5,304.1z"/>
							<path class="st1" d="M767,271.2l-0.2,6.6c0.2-1.2,0.5-2.7,0.6,0.3C768,269.8,766.9,279.9,767,271.2z"/>
							<path class="st1" d="M767.3,250.7c0.1,3.5,0.3,0,0.4,0.1C767.5,248.6,767.5,248.1,767.3,250.7z"/>
							<path class="st1" d="M706.7,160.7l0.4-0.5C704.3,160.3,707,160.4,706.7,160.7z"/>
							<polygon class="st1" points="678.4,163.3 681.1,163.7 682.3,163.2 							"/>
							<polygon class="st1" points="661.7,159.7 662.9,159.6 658.3,159.8 							"/>
							<path class="st1" d="M413,159.9l0.8,0.6C415.7,160.4,416.1,159.7,413,159.9z"/>
							<path class="st1" d="M305.7,160.5c-1.2-0.3-4.2-0.5-6-0.2C302,160.3,304.4,160.6,305.7,160.5z"/>
							<polygon class="st1" points="332.4,364.5 330.2,364.7 334.3,364.5 							"/>
						</g>
					</g>
				</g>
			</g>
		</g>
		<rect x="345.1" y="229.9" class="st2" width="333.9" height="64.2"/>
		<text transform="matrix(1 0 0 1 345.1086 276.7641)" class="st3 st4 st5">Synapse API</text>
	</g>
	<g>
		<g>
			<rect x="1056.8" y="244" class="st7" width="663" height="306.6"/>
			<g>
				<g>
					<g>
						<g>
							<path class="st1" d="M1718.4,550.6c0.2,1,0.6,0.4,0.5-2.4l-0.7-2L1718.4,550.6z"/>
							<path class="st1" d="M1719.7,531.7c-0.3-3.3-0.9-7.1-1.5-5c0.6,3.3,0.4,4.1,1.1,7.6c0.1,2.8-0.2,4.9-0.5,4.4
								c0.2,1-0.1,4.4,0.3,5.9c0.5-3.7,0.5-8.3,0.1-13.1C1719.4,530.4,1719.5,531.4,1719.7,531.7z"/>
							<path class="st1" d="M1720.7,256.6l-0.1,1.8C1720.7,257.9,1720.7,257.3,1720.7,256.6z"/>
							<path class="st1" d="M1562.1,242.7c1.3,0,1.8-0.1,1.9-0.1C1562.8,242.6,1561.8,242.6,1562.1,242.7z"/>
							<path class="st1" d="M1533,242c0.6,0,1.1,0,1.7,0C1534,241.9,1533.4,241.9,1533,242z"/>
							<path class="st1" d="M1720.7,256.6l0.2-4.6C1720.7,251.8,1720.7,254.4,1720.7,256.6z"/>
							<path class="st1" d="M1718.1,493.7c0,1,0.1,1.7,0.2,2.5c0-0.8,0-1.5-0.1-2.3C1718.1,493.8,1718.1,493.8,1718.1,493.7z"/>
							<path class="st1" d="M1721.2,331.8l0,1.4c0.1,0.4,0.2,0.8,0.3,1.1L1721.2,331.8z"/>
							<path class="st1" d="M1721.3,389.4c0-1.3-0.5-1.8-0.8-2.3c0.2,0.7,0.3,1.7,0.4,2.8C1721,390,1721.2,389.8,1721.3,389.4z"/>
							<path class="st1" d="M1720.3,480.8l0.1,1.6C1720.4,482,1720.4,481.3,1720.3,480.8z"/>
							<path class="st1" d="M1721.4,290.5c0.1-0.1,0.2-0.3,0.2-0.5C1721.5,290,1721.4,290.2,1721.4,290.5z"/>
							<path class="st1" d="M1653,547.9C1652.9,548,1653,548,1653,547.9C1653.3,548,1653.4,547.9,1653,547.9z"/>
							<path class="st1" d="M1719.8,550.7l-0.9,0c-0.1,0.1-0.2,0.2-0.2,0.3L1719.8,550.7z"/>
							<path class="st1" d="M1479.7,241.2c0.1,0,0.1,0,0.2,0C1481.4,241.2,1480.6,241.2,1479.7,241.2z"/>
							<path class="st1" d="M1054.4,309.8c0.5-5.5,0.6,9,1.2,0.7C1055.4,311.2,1054.8,302.9,1054.4,309.8z"/>
							<path class="st1" d="M1718.1,492.2c0-0.8,0-1.6,0-2.4C1718.1,491,1718.1,491.7,1718.1,492.2z"/>
							<path class="st1" d="M1055.6,310.5L1055.6,310.5l0.1-0.9C1055.7,310,1055.7,310.2,1055.6,310.5z"/>
							<path class="st1" d="M1357.1,241.6c0.3,0.1,0.7,0.2,1.3,0.2C1358.3,241.8,1358,241.7,1357.1,241.6z"/>
							<path class="st1" d="M1448.4,242.4l-2.3-0.1C1447.1,242.3,1447.8,242.4,1448.4,242.4z"/>
							<path class="st1" d="M1309.6,242.4c-1.2,0-1.6-0.1-3.3,0c0.2,0,0.3,0,0.5,0.1C1307.4,242.3,1308.2,242.3,1309.6,242.4z"/>
							<path class="st1" d="M1260.2,242.4c0.3,0,0.6,0.1,0.9,0.1c0.5,0,1.1,0,1.6,0L1260.2,242.4z"/>
							<path class="st1" d="M1502.9,548.2c1.1,0.2,1.8,0.3,2.3,0.5C1504.4,548.3,1511.6,548.2,1502.9,548.2z"/>
							<path class="st1" d="M1718.4,493.7c-0.1-0.3-0.2-0.7-0.2-1.5c0,0.6,0,1.1,0,1.6C1718.3,494,1718.3,494.1,1718.4,493.7z"/>
							<path class="st1" d="M1307.6,246.8l-7.8-0.1C1301.9,246.8,1304.8,246.8,1307.6,246.8z"/>
							<path class="st1" d="M1148.5,548.3l1.8-0.1C1149.6,548.2,1149,548.2,1148.5,548.3z"/>
							<path class="st1" d="M1276.5,246.8c-1.4-0.2-2.9-0.3-4.4-0.4c-0.3,0-0.7,0.1-0.9,0.1L1276.5,246.8z"/>
							<path class="st1" d="M1505.2,548.7C1505.1,548.7,1505.1,548.7,1505.2,548.7C1505.1,548.7,1505.1,548.7,1505.2,548.7z"/>
							<path class="st1" d="M1556.8,547.4c-7.5,0-3.5,0.7-5.1,1.1c-8.9,0.2-4.1-0.5-7.2-0.9c-5.6,0.2-9.8,0.9-14,0.8
								c-0.3-0.1-1.1-0.2-0.2-0.3c-5.9,0.6-17.5,0-24.4,0.8c-0.5-0.1-0.8-0.1-0.9-0.2c1.1,0.4,1.3,0.7,1.1,1c-3.4,0-6.2,0.5-7.5,0
								c2.1,0,2.2-0.2,3.2-0.3l-3.5,0.2c-3.2-0.7,4.8-0.2,4.8-0.8c-6.8,0.2-14.8,0.8-20.1,0.6c-1.1-0.7,12.3-0.2,5.3-0.8l8.1,0.3
								c-6.2-1.1,4.9,0.1-0.8-1.1c-10.7-0.2-12,0.3-22.6,0.1c-2.4,0.4,0.8,0.6-1.6,0.9c-15.2,0.7-11.9-1.7-23.1-0.8
								c-2.9,0.5-4,1.3-11.9,0.9l2.7-0.8c-10.3-0.1-5.9,1.1-16.7,0.6c1.9-0.3,8.1-0.3,6.6-0.3c-7-0.6-5,0.4-10.4,0.4l-1.1-0.7
								c-11,0.1-23.1,0.6-35.3,0.7c0.7-0.2,2.8-0.4-0.1-0.6c-15.4,0.3-32.8-0.1-47.7-0.5l-5.7,0.6c-1.3,0-2.4-0.3-1-0.4
								c-5.8-0.2-0.3,0.4-3.1,0.6c-3.3,0-4.3-0.3-2.3-0.5c-10.2,0.5-29.1,1.1-39.8,0.4l2.1-0.2c-8.4-0.2-9.4,1.2-17.2,0.7l1.5-0.1
								c-18.2-0.3-38.3,0.3-52.1-0.6c-2.6,0.8-18-0.4-19.2,0.8c-10.4-0.6-7.4-0.8-22-1.2c-3.9-0.1-5.8,0.7-10.6,0.9l-0.1-0.6
								l-6.6,0.6l-3.5-0.7l-4.5,0.2c1.8,0,3.8,0.3,3.6,0.5c-7.1,0.3-17.2-0.4-17.4-0.7l-16.7,0.5c0.4-0.2,3.2-0.3,5.4-0.5
								c-8.9,0.6-1.6-0.6-9.8-0.1c1.1,0.1-0.6,0.4-0.8,0.5c-4.1-0.4-13.4-0.4-20.2-0.2l1.3-0.4c-6-0.1-12.4,0-18.9,0.1
								c-5.7,0-11.5,0.1-17.3,0.1c0-0.1,0-0.1,0-0.2c0,0.1,0,0.2-0.1,0.3c0.2,0.1,0.3,0.3,0.3,0.5c-0.1,0.2-0.4,0.3-1.1,0.4
								c0-0.2-0.1-0.4-0.1-0.7c0.2-0.4,0.4-0.7,0.7-0.8c0,0,0-0.2-0.1-0.3c0-0.1,0-0.2-0.1-0.2c0-0.1-0.1,0-0.1,0.1
								c0,0.1,0,0.3-0.1,0.4c0,0.1,0,0.2-0.1,0.2c0,0.1-0.1,0.3-0.1,0.2c0,0-0.1-0.1-0.1-0.2c0-0.1,0-0.1-0.1-0.4
								c0-0.2-0.1-0.5-0.1-0.9c0.1-5.2,0.7-3.5,1-0.5l-0.2-6.3c0.2-0.4,0.3,1.1,0.5,1.5c-0.4-2.6,0.7-10.9,0-14.7l0.2-0.4
								c0-13.9-0.2-20.2-0.3-31.6c-0.6-0.2-0.4-4.7-0.9-8c0.2-8.3,0.6-17.6,0.6-27.6c-0.3-7.1-0.5-2.1-0.8-5.2
								c0.5-0.5,0.5-10.5,0.8-5.3c-0.1-12.1-0.1-15.4-0.5-30.6c-0.2,1.7-0.3,3.5-0.5,2.6c-0.1-2.8,0.2-6.3,0.5-5.9l0.1,0.7
								c-0.8-17.1,1.5-39.5,0.4-53.1l0.1,0.8l-0.6-14.1c0.1-6.5,0.4,3.9,0.7-0.9c-0.9-15.2,0.1-24.1-0.4-36.6
								c1.5-9.7-0.1-34.5,0.9-47.6l-0.4,0.8c-0.3-3.4,0.2-4.1,0.3-6.6c-0.3,0.4-0.3,3.7-0.5,1.6c0-2.5-0.1-5-0.1-7.5
								c0-1.8,0-3.5,0-5.3c5.3,0,10.6,0.1,16,0.1c6.1,0.1,12.3,0.2,18.4,0.3c12.3,0.2,24.7,0.4,36.8,0.6c10.8,0.1,6.1-1.8,19.7-1
								l-3.9,0.7c21.7-0.8,44.4,0,65.7-0.6c-1.3,0.2-1.3,0.4-3.4,0.3c4.5,0.5,16.6,0,16.7-0.4c3.3,0,0.8,0.4,2.8,0.6
								c4.5,0.3,11.3-0.6,13.7-0.1c0.4,0.1-1.3,0.2-2.1,0.2c2.9-0.2,13.7,0.1,10.9-0.5c8,0.3,15.3-0.2,21.6,0.1
								c4.2-0.6,13.7,0.3,15-0.6c-0.6,0.9,14,0.7,19,0.3c-1.7,0.3,4.4,0.3,2.4,0.7c5.8,0,11-0.2,10-0.6c10.6,1.1,21.3-0.9,27.3,0.5
								c17.1-0.5,32.9-0.8,48.3-1c-0.6,0.9-17,0.1-16.3,1c14.6-0.4,23-1.1,37.5-0.9c3.7,0.1-2.1,0.4-3.4,0.5
								c14.6-0.4,28.2,0.1,41.2-0.4c0,0.1-1.4,0.2-2.8,0.2c2.6,0,5.9,0.1,5.7-0.3l-2.5,0.1c-4.1-0.6,10.2-1.2,10.6-1.6
								c-4.3,1.2,12.8,0.3,5.9,1.8c1.7-0.1,3.8-0.3,3.4-0.5c2.5,0.1,3.3,0.2,0.8,0.6c9.2-0.2,5.9-0.7,14.2-0.6
								c0,0.2-1.7,0.3-2.6,0.5c4.2-0.4,8.4-0.8,15.4-0.6c-0.4,0.1,0.4,0.3-1.7,0.3c12-0.1,20.5-1,33.7-0.7c-3.9,0.9,4.5,0.3,5.2,1
								l7.1-0.2l-2.9-0.4c6.2,0,11.7-0.5,17.1-0.3l-4.6,0.3l11.7-0.1l-6.6-0.3c6.3-0.4-0.7-0.9,7.6-0.7c-1.7,0.1,6.2,0,9.5,0.4l0,0
								c3.1-0.2,6.2-0.5,10.9-0.3c1.2,0.2-1,0.8-0.2,1c3-0.6,14.6-0.2,18.4-0.8c-1.3,0.2-1.3,0.5-0.9,0.6l2.6-0.5
								c2.9,0.2,3.3,0.2,2.8,0.6c8.7,0.1-2.8-0.9,7.5-0.5c-0.8,0-0.4,0.1-2.1,0.2c10.3,0.2,20-0.3,29.5-0.1c2.8,0.8-8.3,0.2-5.1,0.8
								c13.7-0.1,28.4-0.9,41.6-0.7l-2.5-0.1c1.8-1.1,9.9,0.5,16.6,0c-1.6,0.1-2.2,0.6-1.7,0.5c3.7,0.1,7.4,0,11.5,0
								c2,0,4.2-0.1,6.4-0.2c1.1,0,2.3-0.1,3.5-0.1c0.8,0,1.7-0.1,2.6-0.1c0,0.8,0.1,1.6,0.1,2.4c0,1.2,0.1,2.5,0.1,3.8l-0.3-1.7
								c-0.2,5.3-0.1,14.1-0.3,19.9c0.3,1.7,0.2,5,0.6,3c-1.6,17.8,0.8,34-0.5,49.8c0-1.9-0.2-4.5-0.2-3l0.3,13.5
								c0.5-1.1,0.3-1.8,0.6-4.6c0.3,1.7,0.5,5.5,0.5,8.8c-0.3-6.1-0.7,0.1-1,2.7c0.1-0.4,0.3,0.5,0.4,0.2c-0.8,7,0.9,1.2,0.4,10.8
								l-0.2-0.5c0.1,3.6,0.4,6.9,0.4,10.8c-0.5,1.6-0.2-3.8-0.7-4.1c0,5.4,1,10.7,0.5,15.7c-0.1-2.3-0.2-5.6-0.3-7.9
								c-0.6,5.4-0.5,6-0.6,10l0-0.4l-0.3,9.2l0.2-2.3c1.4,6.8,0.3,13.9,1.2,23.1c-0.9-8.9-0.5-1.5-1.1-2.2
								c-0.2,2.3-0.4,5.9-0.5,4.9c0.5,4.3-0.4,7.2,0.3,13.4c-0.2,0.3,0,4.6-0.5,3.7c0.2,5.6,0.3-1.3,0.6-0.9
								c0.7,8.7-0.8,20.4,0.1,32.9c0.4,10.8,1,12.8,1.4,22.8c-0.3,3.4-0.7-2.8-0.7-2.8c-0.3,5.4-0.2,9.5,0,14.7
								c-0.2-1-0.3,0-0.5,1.6c0.1,4.1,0.7,2.8,0.4,8.2c-0.2-0.9-0.6-2.1-0.8-4.1c0.2,4.9,0.5,9.6,0.7,14.7c-0.3,1.3-0.5-3-0.7-4.8
								c0.2,5.6,0.3,14.6,0.8,16.4l0.2-3.6c0,2.1-0.5,1.1-0.6-0.5c-0.4-4.8,0.2-7,0.4-7.3l0.1,3.6c1.1-3.7-0.2-14.4-0.1-21.6l0.8,3
								l-0.7-7.4c0.2-1.6,0.7-2.6,0.8,0.9c0.4-5.2-0.3-4.6,0.2-9c0.1-0.5,0.1-0.3,0.1,0.2l-0.2-5c0.2,1,0.6-0.8,0.5,2.3
								c0.5-9.1-0.6-14.6,0-18l0.1,0.8c-0.3-12.6-0.6-1.2-1.3-10.6l1.5-6.3l-0.6-1.2c0-1.3,0.1-3.9,0.3-3.4c-0.4-4.8-0.3,0.8-0.7-2
								c0.6-6.2-0.3-17.2,0.7-18.6c-0.5-2.2-0.4,6-0.7-0.7c1-1.9-0.2-7.7,0.3-13.4c0.5,1.8,0.3,7.2,0.7,1.4
								c-0.9-3.4,0.2-11.1,0-15.9c-0.7-0.2-0.3-10.5-0.5-18.5c0.2,0.5,0.4-15.2,0.7-22.7l0.1,0.2c-0.7-1.5-0.6-9.2-0.7-14.8
								c0.4,0.2,0.6,1.2,0.8,4.3l0-5.3c-0.2-1.3-0.4-2.9-0.4-6.3l0.5,1.3c0-7.1-0.6-14.2-0.3-23.3c-0.5-0.5-1.4,7.2-1.8-2.4
								c0.3-0.4,0.8-0.7,0.9,1.8c0-0.8-0.2-2.9-0.1-4.6l0.5,3.8c0.2-4.1-0.4-2.2-0.3-5.5c0.4,0.1,0.3-2.4,0.6-2c0,0.8-0.2,2.9,0,4.1
								c0.1-3.7,0.3-8.2,0.6-9.7c-0.2,0.3-0.5,0-0.6-2.7c0-7.1,0.5-2.4,0.7-6.5c-0.3-1.7,0-6.2-0.6-6.3c0-2.1,0.3-2.4,0.4-3.2
								c-0.3-3.7-0.1-17.1-0.7-12.9l0,0.9c0-0.2,0-0.4,0-0.6c0,0,0,0,0,0v0c-0.1-2.5-0.2-5-0.2-7.5c0-1.3,0-2.5,0-3.8
								c0-1.5,0-3,0-4.4c-3.9-0.1-7.7-0.1-11.6-0.2c-3.6-0.1-7.2-0.1-10.7,0l0-0.2c-7.1,0.2-15.8,0.1-20.8,0.6
								c-2.1,0-4.9-0.4-4.1-0.6c-5.4,0.1-6,0.4-13.9,0c5.4-0.3-1.9-0.3,5.6-0.3c-7-0.2-8.6-0.5-16.2,0.1c2.6-0.5-5.3-0.6-8.6-0.5
								l4.9,0.4c-3.8,0.1-7.1,0-10.4,0l1.8-0.7c-14.4-0.8-26,1.4-37,0c-3.8,0.5,7.8,0.3,4.4,0.9c-6.6-0.1-13.5-1-15.6-1
								c-9.1-0.4-8.5,1-18,0.7c1.2,0.2,2.4,0.9-4.7,1.1c-6.6-0.1-8.2-1-4-1.2c1.6,0,2.4,0.1,2.3,0.1c2.1-0.1,5-0.2,2.3-0.4l-0.9,0.2
								c-3.3-0.2-12.4-0.2-10.3-0.6c-5,0.2-2.1,0.4,1.6,0.5c-8.5-0.3-13.3,0-22-0.2c1.4,0.1,2.7,0.4,1.3,0.4
								c-12.8-0.3-5.7,0.5-14.4,0.6c-4.9-0.4,1.8-0.9-7-0.6c-5.3-0.2-1.1-0.6,1-0.8c-8,0.5-14.9-0.3-19.5-0.4l4.2-0.2
								c-2.5,0.1-4.6,0.1-6.7,0.1l2.4,0.5c-2.5-0.1-4.6-0.1-4.5-0.3c-2.5,0.3,1.9,0.8-3.1,1.2c-3.3-0.2-10,0.3-11.2-0.4
								c10.4,0.2-1.1-0.6,7.6-0.7c-1.7,0.1-3.8,0.1-6.2,0c-0.4-0.1,0.4-0.1,1-0.2c-9.9-0.6-4.6,0.7-14.8,0.7
								c1.3-0.4-2.4-0.7-4.1-0.6c4.1,0,2,0.6-1.8,0.9c-6.6-0.3-7.2,0.2-10.6,0.2l3.9,0.1c-1.3,0.4-4.6,0.3-9.2,0.4
								c-0.4-0.3,4.2-0.2,2.5-0.3c-5.1,0.6-11.5-0.6-18.6-0.2c-3.3-0.2-0.3-0.7-3.2-0.8c-8,0.5-8.6-0.5-17-0.1
								c2.4,0.5,2.8,0.4-3.1,0.8l13.8-0.3l-8.8,0.7c4.2,0,8.8-0.3,11.2-0.2c-4.2,0.4-3.8,0.3-1.8,0.7c-5.7-0.7-11.3,0.4-17.8-0.1
								l0.2-1.2c-9.9-0.5-17.5,0.6-30.4,0.3l4.1,0.2c-1.7,0.5-7.9,0.1-12.1,0.3c0.4-0.4-2.2-0.5-4-0.8c0.2,0.3-9.4,0-10.5,0.8
								l-5.7-0.5c-10.4-0.2-11.8,1.1-21.8,1c3-0.4-1.5-0.7,5.1-1c-3.3,0-6.3-0.1-6.4,0.2c-1.9-0.2-9.2,0.5-12.3,0.2
								c-1.4,0.2-1.9,0.6-5.6,0.6c-0.4-0.1,0-0.2,0-0.2c0,0.2-5.8,0.3-2.6,0.7c-10.2-1.2-28.6,0.1-37.5-1c-7.2,0.1-16,0.3-22.6,0.3
								c0.4-0.1,0-0.2,1.3-0.2c-9.1-0.4-5.6,1.1-15.9,0.7c-5.3-0.6,5.5-0.3,2.2-0.6c-1.4-1.3-12.5,0.2-19.4-0.6l1.7-0.1
								c-5.3-0.4-13,0.5-21.6,0.4c0,0,0.4-0.1,0.1-0.2c-5.9,0.7-17.2,0.9-25.5,1.1c2.6-0.5,3.8-0.3,2.2-0.8c-3.7,0.1,1.1,0.8-6.4,1
								c-2.4-0.3-7.8-0.5-8.5-1.1l7,0c-3.6-0.7-9.1,0-12.8-0.1l0.5-0.3c-10.8,0.1-11,0.9-22.6,0.8l1.2,0.2
								c-6.3,0.8-5.3-0.4-11.6,0.1l-1.9-0.8c-4.2,0.2-14.7,0.8-22.2,0.9c4.3-0.6,13-0.9,18.5-1.2c-4.2,0-14.1,0.1-16.3,0.4
								c1.7-0.1,3.8-0.3,5.4-0.1c-5.1,0.6-11.8,0.9-20.1,0.9c0.5-0.5-1.7-0.7-5-0.8c-1.7-0.1-3.6-0.1-5.7-0.1c-2.6,0-5.3,0-7.9-0.1
								c0,1.7,0,3.3-0.1,4.8c0,1-0.1,2-0.1,3c-0.1,1.8-0.2,3.4-0.4,4.4c0.6,14.6-0.2,29-0.2,46.1c1.2-6,0,5,1.3,3.9
								c0.1,4,0.1,5.5,0,5.8l-0.7,12c-0.4,2.9-0.3-3.8-0.5-3.4c-0.1,8.7-0.5,3.6-0.8,9.4c0.4-1.2,0.6,3,0.5,8l0.6-7
								c0.7,12.1-1,10.5-0.4,22.7l-0.4-3.9c0.2,6.3,0,23.2,1,29.3c-0.1,1.1-0.5,2.6-0.6-0.2c-0.1,15,1,33.4,0.4,45.1l-0.3-1.1
								c0.1,2.8,0.6,4.9,0.3,8.4c-0.1-0.2-0.3-1.1-0.3,0.2c0.1,1.5,0.5,7.4,0.3,11.2l-0.3-3.2c-0.4,14.6,0.8,22.5,1,34.8
								c-0.9,0-1.2,11.5-1.3,17.2l-0.1-0.2c-0.1,17.1,0.7,29,1.1,44.8c-0.2,1.9-0.3,4.2-0.4,7c-0.1,3-0.1,4.7-0.2,11.4
								c6,0,12.6,0.1,19.2,0.1c5.7,0,11.3,0.1,16.2,0.3c-2.4-0.2,0.4-0.7,3.2-0.8c3.7,0.2,10.2-0.6,9.6,0.2l-1.3,0
								c2.8,0.8,10.4,0.6,16.3,0.6l1-1.1c15.5,1.5,40.7-0.6,49.1,0.8c3.7-0.3,8.4-0.3,12.1-0.5l-0.2,0.6c10.4,0.1,15.6,0.2,28.4,0.1
								l-2.6,0.4c7.2,0,9.1-1.6,15.8-1.7l2,0.8c12.6,0,25.4,0.7,37.9,0c-0.2,0.1-0.6,0.4-2.6,0.4c5.9,0,23,0.6,20.8-0.6
								c0.1,0.8,13,0.1,19.8-0.3l-1.1,0.6c5.8-0.7,5.9-0.9,14-1.1c1.9,0.1,1.7,0.4-0.9,0.3c6.3,0.3,4.9-0.5,12.6-0.2l-2.9,0.4
								c6.5,0,6-0.1,9.6-0.6c4.1-0.2,12.4,0.1,13.3,0.6c0.9-0.3,4.5-0.7,8.3-0.6c0.5,0.2-0.9,0.3-1.6,0.4
								c10.9,0.4,16.2-0.6,23.7-0.1c0.2,0.2,0.6,0.3,1.3,0.3c-8.7,0-15.7,0-15-0.1c0,0.5,7,0.6,1.4,1.3c5.6-0.4,15.2-1.2,22.1-1
								c0.3,0,0.7,0.1,0.9,0.2l-0.7,0.1c1.6,0.1,3,0,4.3-0.1c2.2,0.1,3.6,0.1,5.7,0.2c0.8,0.4,8,0.2,11.5,0.2
								c-0.3-0.6,4.3-0.5,0-0.9c0.6,0-0.7,0.1-3,0.1c-0.5,0-1.1,0-1.5,0.1c0.1,0,0.1,0,0.2,0c-2.3,0-5.3,0-8.7,0
								c2.8-0.3,5.6-0.5,9.5-0.2c1.8-0.4,3.8-0.7,4.9-0.9c4.8,0.8,14,1.2,15.3,1.7c10.7-0.3,25.1-0.2,31.8-1.3
								c3-0.1,3.5,0.3,4.6,0.5c-1.8,0.1-3.8,0.1-4.8,0.2c6.1-0.3,18-0.1,19.4-0.8c7.6,0.3-4.3,0.7,6.2,0.6l-1.4,0.2
								c20.7,1.2,33.6-1.9,56.5-0.4c-1.6-0.1-2.4-0.1-2.7-0.3c26.1,0.7,53.8-0.6,79.6,0.4c7.3,0.2,8.1-0.3,12.6-0.6l1.6,0.6l7.6-0.7
								c10.8-0.5,18.8,1.5,32.5,0.5l-1.8-0.4c4.9,0.1,15.6-0.2,14.8,0.2c0.5-0.1,1.6-0.4,3.5-0.2l0.1,0.3l12.1-0.5
								c9.4,0.2-1.5,1.3,12.2,1.3c5.1-0.1,14.5-0.9,12.6-1.1c-2.1,0-5.2-0.2-5.4-0.5l4.7-0.2c0.8-0.9,4.4-1.9-7-2.5l-8,0.6l-2.6-0.5
								l6.7,0c-3.8-0.4-6.2,0-8.9,0.2c-0.6-0.2-1.8-0.4-3.3-0.5l-7.8,0.9c-0.9-0.4,3.5-0.7-1.7-0.9c-3.7,0.4,3.5,0.8-2.6,1.1
								c-3.8-0.4-2.7-0.8-7.2-0.4c-0.6-0.2,0.3-0.4,2.1-0.5c-4,0.3-10.5,0.1-12.6,0.6c-4-0.5-13.4,0.1-13-0.7
								c-1.3,0.2-7,0.7-10.7,0.7c6.7-1.1-13.7-0.1-11.9-1.2c-4.9,0.9-17.9,0.4-26.6,0.9c0.5-0.1,1.5-0.2,2.2-0.2
								c-4.9-0.1-6.4-0.4-9.5-0.5c-0.6,0.8-8.3,1-12.4,1.4c-6-0.8,3.7-0.9,1.8-1.6c0.3,0.6-10.5,0.6-8.4,1.2c-4.6-0.5-4-0.2-6.4-0.9
								c-0.8,1-4.3,0.2-8.1,0.8c-6.7-0.5-1.7-0.9-9.1-0.6C1550.3,547.7,1556.8,547.4,1556.8,547.4z M1382.2,549.1
								C1382.2,549.1,1382.2,549.1,1382.2,549.1c1.5,0,2.8,0,3.6,0C1385.1,549,1384,549.1,1382.2,549.1z M1367.5,549.1
								c1.8,0,4,0,6.4,0c0.5,0.2,0,0.4-1.5,0.4C1373.2,549.4,1369.7,549.3,1367.5,549.1z M1398.6,553c-2.3,0.1-3.1,0-3.4-0.1
								c1.1,0,2.4,0,4.1-0.1c0.1,0,0.2,0,0.3-0.1C1399.3,552.8,1399,552.9,1398.6,553z"/>
							<path class="st1" d="M1402.7,552.3c0.3,0,0.5,0,1,0c-0.5,0-0.9-0.1-1.4-0.1c-0.3,0.1-0.6,0.1-0.8,0.2
								C1401.9,552.3,1402.4,552.3,1402.7,552.3z"/>
							<path class="st1" d="M1720.6,258.7l0-0.3c0,0.3,0,0.5-0.1,0.6C1720.6,258.9,1720.6,258.9,1720.6,258.7z"/>
							<polygon class="st1" points="1164.9,548 1164.9,548.2 1166.2,548 							"/>
							<path class="st1" d="M1718.7,339.6c0,0.2-0.1,0.5-0.1,1.1C1718.6,340.6,1718.6,340.1,1718.7,339.6z"/>
							<path class="st1" d="M1718.6,374.5l-0.2,4.9C1718.5,377.3,1718.5,375.7,1718.6,374.5z"/>
							<path class="st1" d="M1718.3,401.3c0.1,0.3,0.2,0.4,0.2,0.5c0,0,0,0,0-0.1L1718.3,401.3z"/>
							<path class="st1" d="M1450.3,246.1c-0.4,0-0.7,0-1,0C1446.8,246.3,1448.5,246.2,1450.3,246.1z"/>
							<path class="st1" d="M1577.3,244.8c-1.3,0.1-2.7,0.2-4.1,0.3C1575.5,245.1,1577.2,245.1,1577.3,244.8z"/>
							<path class="st1" d="M1308.5,246.8C1308.5,246.8,1308.5,246.8,1308.5,246.8c-0.3,0-0.6,0-0.9,0L1308.5,246.8z"/>
							<path class="st1" d="M1567.3,245.1c2.3,0.1,4.2,0.1,5.9,0C1571.4,245,1569.2,245,1567.3,245.1z"/>
							<path class="st1" d="M1718,517.7l0,1.3c0,0,0.1,0.1,0.1,0.2L1718,517.7z"/>
							<path class="st1" d="M1718.1,519.1l0.1,1.4C1718.2,519.9,1718.1,519.3,1718.1,519.1z"/>
							<path class="st1" d="M1718.3,523.6l-0.1-3C1718.2,521.6,1718.1,522.9,1718.3,523.6z"/>
							<path class="st1" d="M1718.3,482.1l-0.2-0.4C1718.1,481.9,1718.2,482.1,1718.3,482.1z"/>
							<path class="st1" d="M1718.2,471.3c0,2.6-0.4,6.5-0.3,10.1l0.2,0.3C1717.8,480,1718.6,473.8,1718.2,471.3z"/>
							<path class="st1" d="M1720.7,426.3l-0.2,9c0.2-1.6,0.5-3.7,0.6,0.5C1721.8,424.4,1720.7,438.1,1720.7,426.3z"/>
							<path class="st1" d="M1721.1,398.2c0.1,4.9,0.3-0.1,0.4,0.2C1721.3,395.3,1721.2,394.6,1721.1,398.2z"/>
							<path class="st1" d="M1671.2,242.7l0.5-0.5C1668,242.3,1671.7,242.4,1671.2,242.7z"/>
							<polygon class="st1" points="1632.5,245.3 1636.1,245.7 1637.8,245.2 							"/>
							<polygon class="st1" points="1609.6,241.7 1611.2,241.6 1604.9,241.8 							"/>
							<path class="st1" d="M1269,241.9l1.1,0.6C1272.7,242.4,1273.2,241.7,1269,241.9z"/>
							<path class="st1" d="M1122,242.5c-1.6-0.3-5.7-0.5-8.3-0.2C1117,242.3,1120.3,242.6,1122,242.5z"/>
							<polygon class="st1" points="1125.9,553.1 1122.9,553.3 1128.5,553.1 							"/>
						</g>
					</g>
				</g>
			</g>
		</g>
		<rect x="1214.3" y="330.7" class="st2" width="420.7" height="140.9"/>
		<text transform="matrix(1 0 0 1 1214.3157 377.5685)"><tspan x="0" y="0" class="st3 st4 st5">Synapse Wiki </tspan><tspan x="0" y="84" class="st3 st4 st5">Page Data</tspan></text>
	</g>
	<g>
		<g>
			<rect x="1057" y="577" class="st7" width="663" height="200"/>
			<g>
				<g>
					<g>
						<g>
							<path class="st1" d="M1718.7,777c0.2,0.9,0.6,0.4,0.5-2.1l-0.7-1.8L1718.7,777z"/>
							<path class="st1" d="M1719.9,760.2c-0.3-2.9-0.9-6.3-1.5-4.4c0.6,2.9,0.4,3.6,1.1,6.8c0.1,2.5-0.2,4.4-0.5,3.9
								c0.2,0.9-0.1,3.9,0.3,5.2c0.5-3.3,0.5-7.4,0.1-11.7C1719.6,759.1,1719.8,760,1719.9,760.2z"/>
							<path class="st1" d="M1658.4,576.1l1.6,0.1C1659.5,576.1,1659,576.1,1658.4,576.1z"/>
							<path class="st1" d="M1506.7,575.7c1.2,0,1.6-0.1,1.7-0.1C1507.4,575.6,1506.5,575.7,1506.7,575.7z"/>
							<path class="st1" d="M1480.8,575c0.6,0,1,0,1.5,0C1481.8,575,1481.2,575,1480.8,575z"/>
							<path class="st1" d="M1658.4,576.1l-4.1-0.2C1654.1,576.1,1656.4,576.1,1658.4,576.1z"/>
							<path class="st1" d="M1718.3,726.4c0,0.8,0.1,1.6,0.2,2.2c0-0.7,0-1.4-0.1-2.1C1718.4,726.5,1718.3,726.5,1718.3,726.4z"/>
							<path class="st1" d="M1721.5,582.3l0,1.2c0.1,0.4,0.2,0.7,0.3,1L1721.5,582.3z"/>
							<path class="st1" d="M1721.6,633.6c0-1.2-0.5-1.6-0.8-2c0.2,0.7,0.3,1.5,0.4,2.5C1721.3,634.1,1721.4,634,1721.6,633.6z"/>
							<path class="st1" d="M1720.6,714.9l0.1,1.4C1720.6,716,1720.6,715.4,1720.6,714.9z"/>
							<path class="st1" d="M1688.5,575.4c-0.1-0.1-0.3-0.2-0.5-0.2C1688.1,575.3,1688.2,575.4,1688.5,575.4z"/>
							<path class="st1" d="M1660.5,774.4c0,0,0,0.1,0,0.1C1660.8,774.4,1660.9,774.4,1660.5,774.4z"/>
							<path class="st1" d="M1720,777.2l-0.8,0c-0.1,0.1-0.2,0.2-0.2,0.3L1720,777.2z"/>
							<path class="st1" d="M1433.5,574.3c0.1,0,0.1,0,0.2,0C1434.9,574.2,1434.2,574.2,1433.5,574.3z"/>
							<path class="st1" d="M1054.7,635.6c0.5-4.9,0.6,8,1.2,0.6C1055.7,636.9,1055,629.5,1054.7,635.6z"/>
							<path class="st1" d="M1718.4,725.1c0-0.7,0-1.4,0-2.1C1718.3,724,1718.3,724.6,1718.4,725.1z"/>
							<path class="st1" d="M1055.9,636.2L1055.9,636.2l0.1-0.8C1055.9,635.8,1055.9,635.9,1055.9,636.2z"/>
							<path class="st1" d="M1324.3,574.6c0.2,0.1,0.7,0.2,1.1,0.2C1325.3,574.8,1325.1,574.7,1324.3,574.6z"/>
							<path class="st1" d="M1405.6,575.4l-2-0.1C1404.4,575.4,1405,575.4,1405.6,575.4z"/>
							<path class="st1" d="M1282,575.4c-1.1,0-1.5-0.1-3,0c0.1,0,0.3,0,0.5,0.1C1280.1,575.4,1280.8,575.3,1282,575.4z"/>
							<path class="st1" d="M1238.1,575.4c0.2,0,0.5,0.1,0.8,0.1c0.4,0,0.9,0,1.4,0L1238.1,575.4z"/>
							<path class="st1" d="M1526.9,774.7c1,0.2,1.6,0.3,2,0.5C1528.3,774.8,1534.7,774.6,1526.9,774.7z"/>
							<path class="st1" d="M1718.6,726.4c-0.1-0.3-0.2-0.6-0.2-1.3c0,0.5,0,1,0,1.5C1718.5,726.7,1718.6,726.7,1718.6,726.4z"/>
							<path class="st1" d="M1280.2,579.9l-7-0.1C1275.2,579.8,1277.8,579.9,1280.2,579.9z"/>
							<path class="st1" d="M1211.6,774.7l1.6-0.1C1212.6,774.7,1212,774.7,1211.6,774.7z"/>
							<path class="st1" d="M1252.5,579.9c-1.2-0.2-2.6-0.3-3.9-0.4c-0.3,0-0.6,0.1-0.8,0.1L1252.5,579.9z"/>
							<path class="st1" d="M1529,775.2C1529,775.2,1529,775.2,1529,775.2C1529,775.2,1529,775.2,1529,775.2z"/>
							<path class="st1" d="M1575,773.8c-6.7,0-3.1,0.7-4.5,1.1c-7.9,0.2-3.7-0.5-6.4-0.9c-5,0.2-8.8,0.9-12.5,0.8
								c-0.3-0.1-1-0.2-0.2-0.3c-5.2,0.6-15.6,0-21.7,0.8c-0.5-0.1-0.7-0.1-0.8-0.2c1,0.4,1.1,0.7,0.9,1c-3,0-5.5,0.5-6.7,0
								c1.8,0,2-0.2,2.8-0.3l-3.1,0.2c-2.8-0.7,4.3-0.2,4.3-0.8c-6.1,0.2-13.2,0.8-17.9,0.6c-1-0.7,10.9-0.2,4.7-0.8l7.2,0.3
								c-5.5-1.1,4.4,0.1-0.7-1.1c-9.5-0.2-10.6,0.3-20.1,0.1c-2.1,0.4,0.7,0.6-1.4,0.9c-13.5,0.7-10.6-1.7-20.5-0.8
								c-2.6,0.5-3.6,1.3-10.6,0.9l2.4-0.8c-9.2-0.1-5.3,1.1-14.9,0.6c1.7-0.3,7.2-0.3,5.8-0.3c-6.2-0.6-4.4,0.4-9.2,0.4l-1-0.7
								c-9.8,0.1-20.6,0.6-31.5,0.7c0.6-0.2,2.5-0.4-0.1-0.6c-13.7,0.3-29.2-0.1-42.4-0.5l-5,0.6c-1.2,0-2.2-0.3-0.9-0.4
								c-5.1-0.2-0.3,0.4-2.7,0.6c-2.9,0-3.9-0.3-2-0.5c-9.1,0.5-25.9,1.1-35.4,0.4l1.9-0.2c-7.5-0.2-8.4,1.2-15.3,0.7l1.3-0.1
								c-16.2-0.3-34.1,0.3-46.4-0.6c-2.3,0.8-16-0.4-17.1,0.8c-9.2-0.6-6.6-0.8-19.6-1.2c-3.5-0.1-5.2,0.7-9.5,0.9l-0.1-0.6
								l-5.8,0.6l-3.1-0.7l-4,0.2c1.6,0,3.4,0.3,3.2,0.5c-6.3,0.3-15.3-0.4-15.5-0.7l-14.9,0.5c0.3-0.2,2.8-0.3,4.8-0.5
								c-7.9,0.6-1.4-0.6-8.7-0.1c1,0.1-0.5,0.4-0.7,0.5c-3.6-0.4-11.9-0.4-18-0.2l1.2-0.4c-11-0.1-23.3,0.2-35.7,0.2
								c4.4,0.2,3.4,0.9-0.2,1l-1.5-0.7c-2.3,0.4,3.8,0.2-1,0.7c-4.6-0.1-3.1-0.7-0.5-1l-5.6,0.2c-0.3-0.2,1-0.3,1.3-0.5
								c-2.3,0.4-9.7-0.7-13,0l-0.3-0.2c-12.4,0-18,0.2-28.1,0.3c-0.2,0.6-4.1,0.4-7.2,0.9c-2.5-0.1-5-0.2-7.6-0.2
								c-1.3,0-2.7-0.1-4-0.1l-0.9,0l-0.3,0l-0.6-0.1c0-0.2,0-0.4,0-0.6l0-0.3l0-1.1c0-1.5,0-3,0-4.5c-0.3-6.3-0.5-1.8-0.8-4.7
								c0.5-0.5,0.5-9.4,0.8-4.8c-0.1-10.7-0.1-13.7-0.5-27.3c-0.2,1.5-0.3,3.1-0.5,2.3c-0.1-2.5,0.2-5.6,0.5-5.2l0.1,0.6
								c-0.8-15.2,1.5-35.1,0.4-47.3l0.1,0.7l-0.6-12.6c0.1-5.8,0.4,3.5,0.7-0.8c-0.9-13.6,0.1-21.4-0.4-32.6
								c1.5-8.6-0.1-30.7,0.9-42.3l-0.4,0.7c-0.3-3,0.2-3.6,0.3-5.9c-0.3,0.3-0.3,3.3-0.5,1.4c0-2.2-0.1-4.4-0.1-6.7
								c0-1.5,0-3,0-4.5c4.6,0,9.3,0.1,14,0.1c5.5,0.1,10.9,0.2,16.4,0.3c11,0.2,22,0.4,32.8,0.6c9.6,0.1,5.4-1.8,17.5-1l-3.4,0.7
								c19.3-0.8,39.5,0,58.5-0.6c-1.1,0.2-1.2,0.4-3,0.3c4,0.5,14.8,0,14.8-0.4c2.9,0,0.7,0.4,2.5,0.6c4,0.3,10.1-0.6,12.2-0.1
								c0.4,0.1-1.1,0.2-1.9,0.2c2.6-0.2,12.2,0.1,9.7-0.5c7.1,0.3,13.6-0.2,19.3,0.1c3.7-0.6,12.2,0.3,13.3-0.6
								c-0.5,0.9,12.5,0.7,16.9,0.3c-1.5,0.3,3.9,0.3,2.1,0.7c5.1,0,9.8-0.2,8.9-0.6c9.4,1.1,19-0.9,24.3,0.5
								c15.2-0.5,29.3-0.8,43-1c-0.5,0.9-15.1,0.1-14.6,1c13-0.4,20.5-1.1,33.4-0.9c3.3,0.1-1.9,0.4-3,0.5c13-0.4,25.1,0.1,36.6-0.4
								c0,0.1-1.3,0.2-2.5,0.2c2.3,0,5.3,0.1,5-0.3l-2.2,0.1c-3.6-0.6,9-1.2,9.4-1.6c-3.9,1.2,11.4,0.3,5.3,1.8
								c1.5-0.1,3.4-0.3,3-0.5c2.2,0.1,2.9,0.2,0.7,0.6c8.2-0.2,5.3-0.7,12.6-0.6c0,0.2-1.5,0.3-2.3,0.5c3.7-0.4,7.5-0.8,13.7-0.6
								c-0.4,0.1,0.3,0.3-1.5,0.3c10.7-0.1,18.3-1,30-0.7c-3.5,0.9,4,0.3,4.6,1l6.3-0.2l-2.5-0.4c5.5,0,10.4-0.5,15.2-0.3l-4.1,0.3
								l10.4-0.1l-5.9-0.3c5.6-0.4-0.6-0.9,6.8-0.7c-1.5,0.1,5.5,0,8.4,0.4l0,0c2.7-0.2,5.6-0.5,9.7-0.3c1.1,0.2-0.9,0.8-0.2,1
								c2.7-0.6,13-0.2,16.4-0.8c-1.1,0.2-1.2,0.5-0.8,0.6l2.3-0.5c2.6,0.2,2.9,0.2,2.5,0.6c7.7,0.1-2.5-0.9,6.7-0.5
								c-0.7,0-0.4,0.1-1.9,0.2c9.2,0.2,17.8-0.3,26.2-0.1c2.5,0.8-7.4,0.2-4.5,0.8c12.2-0.1,25.2-0.9,37-0.7l-2.2-0.1
								c1.6-1.1,8.8,0.5,14.8,0c-1.5,0.1-1.9,0.6-1.5,0.5c8.1,0.2,16.5-0.3,28.8-0.6l-1.5,0.3c4.8,0.2,12.5,0.1,17.7,0.3
								c1.5-0.3,4.5-0.2,2.7-0.6c15.9,1.6,30.3-0.8,44.3,0.5c-1.7,0-4,0.2-2.7,0.2l2.9-0.1l1.7-0.1l0.1,1.8l0.1,2.9
								c0.2-0.5,0.3-0.9,0.4-1.5c0-0.3,0.1-0.6,0.1-1.1c0-0.2,0-0.4,0.1-0.6c0-0.2,0.1-0.5,0.1-0.7c0.1,0.3,0.1,0.7,0.2,1.2
								c0.1,0.6,0.1,1.2,0.2,1.9c0.1,1.4,0.1,3,0.1,4.5c-0.3-5.4-0.7,0-1,2.4c0.1-0.4,0.3,0.4,0.4,0.2c-0.8,6.3,0.9,1,0.4,9.6
								l-0.2-0.5c0.1,3.2,0.4,6.1,0.4,9.6c-0.5,1.4-0.2-3.4-0.7-3.6c0,4.8,1,9.6,0.5,13.9c-0.1-2.1-0.2-5-0.3-7.1
								c-0.6,4.8-0.5,5.3-0.6,8.9l0-0.3l-0.3,8.2l0.2-2.1c1.4,6.1,0.3,12.3,1.2,20.5c-0.9-7.9-0.5-1.3-1.1-1.9
								c-0.2,2.1-0.4,5.3-0.5,4.4c0.5,3.9-0.4,6.4,0.3,11.9c-0.2,0.2,0,4.1-0.5,3.3c0.2,5,0.3-1.2,0.6-0.8
								c0.7,7.7-0.8,18.2,0.1,29.3c0.4,9.6,1,11.4,1.4,20.3c-0.3,3-0.7-2.5-0.7-2.5c-0.3,4.8-0.2,8.5,0,13.1c-0.2-0.9-0.3,0-0.5,1.4
								c0.1,3.7,0.7,2.5,0.4,7.3c-0.2-0.8-0.6-1.9-0.8-3.7c0.2,4.3,0.5,8.6,0.7,13.1c-0.3,1.2-0.5-2.7-0.7-4.3
								c0.2,5,0.3,13,0.8,14.6l0.2-3.2c0,1.8-0.5,0.9-0.6-0.4c-0.4-4.3,0.2-6.2,0.4-6.5l0.1,3.2c1.1-3.3-0.2-12.8-0.1-19.2l0.8,2.7
								l-0.7-6.6c0.2-1.4,0.7-2.4,0.8,0.8c0.4-4.6-0.3-4.1,0.2-8c0.1-0.4,0.1-0.2,0.1,0.2l-0.2-4.5c0.2,0.9,0.6-0.7,0.5,2
								c0.5-8.1-0.6-13,0-16l0.1,0.7c-0.3-11.2-0.6-1.1-1.3-9.5l1.5-5.6l-0.6-1.1c0-1.2,0.1-3.4,0.3-3c-0.4-4.3-0.3,0.7-0.7-1.8
								c0.6-5.6-0.3-15.3,0.7-16.6c-0.5-2-0.4,5.3-0.7-0.6c1-1.7-0.2-6.9,0.3-11.9c0.5,1.6,0.3,6.4,0.7,1.3c-0.9-3.1,0.2-9.9,0-14.2
								c-0.7-0.2-0.3-9.3-0.5-16.5c0.2,0.5,0.4-13.5,0.7-20.2l0.1,0.2c-0.7-1.3-0.6-8.2-0.7-13.2c0.4,0.2,0.6,1.1,0.8,3.8l0-4.7
								c-0.1-0.6-0.2-1.2-0.3-2.1c0-0.2,0-0.5,0-0.7c0-0.3,0-0.6,0-1c0-0.8,0-1.6-0.1-2.6c0.2,0.4,0.4,0.8,0.5,1.4c0-1,0-2,0-3
								c-1,0-2.1,0-3.2,0.1c-0.5,0-1,0-1.6,0c-0.4,0-0.7,0-1.1,0c-1.5,0.1-2.9,0.1-4.5,0.2c-3.1,0.1-6.3,0.1-9.9,0
								c-0.5,0.5,6.4,1.4-2.1,1.8c-0.3-0.3-0.6-0.8,1.6-0.9c-0.7,0-2.6,0.2-4.1,0.1l3.4-0.5c-3.7-0.2-1.9,0.4-4.9,0.3
								c0.1-0.4-2.2-0.3-1.8-0.6c0.8,0,2.6,0.2,3.7,0c-3.3-0.1-7.3-0.3-8.7-0.6c0.3,0.2,0,0.5-2.4,0.6c-6.3,0-2.1-0.5-5.8-0.7
								c-1.5,0.3-5.5,0-5.6,0.6c-1.8,0-2.2-0.3-2.9-0.4c-3.2,0.3-15.2,0.1-11.5,0.7l0.8,0c-0.2,0-0.3,0-0.5,0c0,0,0,0,0,0h0
								c-10.7,0.6-22.1-0.3-32.7-0.1l0-0.2c-6.3,0.2-14,0.1-18.5,0.6c-1.9,0-4.4-0.4-3.6-0.6c-4.8,0.1-5.4,0.4-12.3,0
								c4.8-0.3-1.7-0.3,5-0.3c-6.3-0.2-7.7-0.5-14.4,0.1c2.3-0.5-4.7-0.6-7.7-0.5l4.4,0.4c-3.3,0.1-6.3,0-9.3,0l1.6-0.7
								c-12.8-0.8-23.1,1.4-32.9,0c-3.4,0.5,7,0.3,3.9,0.9c-5.9-0.1-12-1-13.9-1c-8.1-0.4-7.5,1-16,0.7c1.1,0.2,2.1,0.9-4.2,1.1
								c-5.9-0.1-7.3-1-3.5-1.2c1.4,0,2.1,0.1,2,0.1c1.9-0.1,4.4-0.2,2.1-0.4l-0.8,0.2c-2.9-0.2-11.1-0.2-9.1-0.6
								c-4.5,0.2-1.9,0.4,1.4,0.5c-7.6-0.3-11.8,0-19.6-0.2c1.2,0.1,2.4,0.4,1.1,0.4c-11.4-0.3-5,0.5-12.8,0.6
								c-4.4-0.4,1.6-0.9-6.2-0.6c-4.8-0.2-1-0.6,0.9-0.8c-7.1,0.5-13.3-0.3-17.3-0.4l3.7-0.2c-2.2,0.1-4.1,0.1-5.9,0.1l2.1,0.5
								c-2.2-0.1-4.1-0.1-4-0.3c-2.3,0.3,1.7,0.8-2.8,1.2c-2.9-0.2-8.9,0.3-9.9-0.4c9.2,0.2-1-0.6,6.8-0.7c-1.5,0.1-3.3,0.1-5.5,0
								c-0.3-0.1,0.3-0.1,0.9-0.2c-8.8-0.6-4.1,0.7-13.2,0.7c1.2-0.4-2.1-0.7-3.6-0.6c3.7,0,1.8,0.6-1.6,0.9
								c-5.9-0.3-6.4,0.2-9.4,0.2l3.5,0.1c-1.2,0.4-4.1,0.3-8.2,0.4c-0.3-0.3,3.7-0.2,2.3-0.3c-4.5,0.6-10.2-0.6-16.6-0.2
								c-2.9-0.2-0.3-0.7-2.9-0.8c-7.1,0.5-7.7-0.5-15.1-0.1c2.1,0.5,2.5,0.4-2.7,0.8l12.2-0.3l-7.9,0.7c3.7,0,7.8-0.3,10-0.2
								c-3.7,0.4-3.4,0.3-1.6,0.7c-5.1-0.7-10,0.4-15.9-0.1l0.2-1.2c-8.8-0.5-15.6,0.6-27,0.3l3.7,0.2c-1.5,0.5-7,0.1-10.7,0.3
								c0.3-0.4-2-0.5-3.5-0.8c0.2,0.3-8.4,0-9.4,0.8l-5.1-0.5c-9.2-0.2-10.5,1.1-19.4,1c2.7-0.4-1.4-0.7,4.6-1
								c-3,0-5.6-0.1-5.7,0.2c-1.7-0.2-8.2,0.5-10.9,0.2c-1.2,0.2-1.7,0.6-5,0.6c-0.4-0.1,0-0.2,0-0.2c0,0.2-5.2,0.3-2.3,0.7
								c-9.1-1.2-25.5,0.1-33.4-1c-6.5,0.1-14.2,0.3-20.1,0.3c0.4-0.1,0-0.2,1.1-0.2c-8.1-0.4-5,1.1-14.2,0.7
								c-4.7-0.6,4.9-0.3,2-0.6c-1.3-1.3-11.1,0.2-17.3-0.6l1.5-0.1c-4.7-0.4-11.5,0.5-19.3,0.4c0,0,0.4-0.1,0-0.2
								c-5.3,0.7-15.3,0.9-22.7,1.1c2.3-0.5,3.4-0.3,2-0.8c-3.3,0.1,1,0.8-5.7,1c-2.2-0.3-7-0.5-7.6-1.1l6.3,0
								c-3.2-0.7-8.1,0-11.4-0.1l0.4-0.3c-9.6,0.1-9.7,0.9-20.1,0.8l1.1,0.2c-5.6,0.8-4.7-0.4-10.4,0.1l-1.7-0.8
								c-3.7,0.2-13.1,0.8-19.7,0.9c3.8-0.6,11.6-0.9,16.4-1.2c-3.7,0-12.6,0.1-14.5,0.4c1.5-0.1,3.4-0.3,4.8-0.1
								c-4.5,0.6-10.5,0.9-17.9,0.9c0.4-0.5-1.5-0.7-4.4-0.8c-1.5-0.1-3.2-0.1-5-0.1c-2.3,0-4.8,0-7.2-0.1c0,1.5,0,2.9-0.1,4.3
								c0,0.5,0,1,0,1.5c0,0.4,0,0.9-0.1,1.3c-0.1,1.6-0.2,3-0.4,3.9c0.6,13-0.2,25.8-0.2,41c1.2-5.4,0,4.4,1.3,3.5
								c0.1,3.5,0.1,4.9,0,5.2l-0.7,10.7c-0.4,2.5-0.3-3.4-0.5-3c-0.1,7.7-0.5,3.2-0.8,8.4c0.4-1,0.6,2.7,0.5,7.1l0.6-6.2
								c0.7,10.8-1,9.3-0.4,20.2l-0.4-3.4c0.2,5.6,0,20.6,1,26.1c-0.1,1-0.5,2.3-0.6-0.2c-0.1,13.4,1,29.8,0.4,40.1l-0.3-1
								c0.1,2.5,0.6,4.3,0.3,7.5c-0.1-0.2-0.3-1-0.3,0.2c0.1,1.3,0.5,6.6,0.3,9.9l-0.3-2.8c-0.2,5.8,0,10.4,0.2,14.6
								c0.1,2.1,0.3,4.2,0.4,6.3c0.1,1,0.1,2.1,0.2,3.2c0.1,1.6,0.1,3.2,0.2,4.8c1.6,0,3.4-0.1,5.2-0.1c0,0.9,10.2,1.2,15.3,1.3
								l-0.2,0.1c15.2,0.1,25.8-0.7,39.8-1.1c8.7,1,29.6,0.4,43.6,0.9c-2.1-0.2,0.3-0.7,2.8-0.8c3.3,0.2,9.1-0.6,8.6,0.2l-1.2,0
								c2.5,0.8,9.2,0.6,14.5,0.6l0.9-1.1c13.8,1.5,36.2-0.6,43.7,0.8c3.3-0.3,7.5-0.3,10.8-0.5l-0.2,0.6c9.2,0.1,13.8,0.2,25.3,0.1
								l-2.3,0.4c6.4,0,8.1-1.6,14.1-1.7l1.8,0.8c11.2,0,22.6,0.7,33.7,0c-0.2,0.1-0.5,0.4-2.3,0.4c5.3,0,20.5,0.6,18.5-0.6
								c0.1,0.8,11.6,0.1,17.7-0.3l-0.9,0.6c5.1-0.7,5.3-0.9,12.4-1.1c1.7,0.1,1.5,0.4-0.8,0.3c5.6,0.3,4.4-0.5,11.2-0.2l-2.6,0.4
								c5.8,0,5.3-0.1,8.5-0.6c3.7-0.2,11,0.1,11.9,0.6c0.8-0.3,4-0.7,7.4-0.6c0.5,0.2-0.8,0.3-1.4,0.4c9.7,0.4,14.4-0.6,21.1-0.1
								c0.1,0.2,0.6,0.3,1.1,0.3c-7.7,0-13.9,0-13.4-0.1c0,0.5,6.2,0.6,1.3,1.3c5-0.4,13.6-1.2,19.6-1c0.3,0,0.6,0.1,0.8,0.2
								l-0.6,0.1c1.4,0.1,2.7,0,3.8-0.1c1.9,0.1,3.2,0.1,5,0.2c0.7,0.4,7.1,0.2,10.3,0.2c-0.3-0.6,3.8-0.5,0-0.9
								c0.5,0-0.6,0.1-2.7,0.1c-0.5,0-1,0-1.3,0.1c0.1,0,0.1,0,0.2,0c-2,0-4.7,0-7.7,0c2.5-0.3,5-0.5,8.5-0.2
								c1.6-0.4,3.4-0.7,4.3-0.9c4.3,0.8,12.5,1.2,13.6,1.7c9.5-0.3,22.4-0.2,28.3-1.3c2.7-0.1,3.1,0.3,4.1,0.5
								c-1.6,0.1-3.4,0.1-4.3,0.2c5.4-0.3,16-0.1,17.3-0.8c6.8,0.3-3.8,0.7,5.5,0.6l-1.3,0.2c18.4,1.2,29.9-1.9,50.3-0.4
								c-1.4-0.1-2.1-0.1-2.4-0.3c23.2,0.7,47.9-0.6,70.8,0.4c6.5,0.2,7.2-0.3,11.2-0.6l1.4,0.6l6.8-0.7c9.6-0.5,16.7,1.5,28.9,0.5
								l-1.6-0.4c4.4,0.1,13.9-0.2,13.2,0.2c0.4-0.1,1.4-0.4,3.2-0.2l0.1,0.3l10.8-0.5c8.4,0.2-1.3,1.3,10.9,1.3
								c4.5-0.1,12.9-0.9,11.2-1.1c-1.8,0-4.7-0.2-4.8-0.5l4.1-0.2c0.8-0.9,3.9-1.9-6.2-2.5l-7.1,0.6l-2.3-0.5l6,0
								c-3.4-0.4-5.5,0-7.9,0.2c-0.6-0.2-1.6-0.4-3-0.5l-7,0.9c-0.8-0.4,3.1-0.7-1.5-0.9c-3.3,0.4,3.1,0.8-2.3,1.1
								c-3.4-0.4-2.4-0.8-6.4-0.4c-0.6-0.2,0.3-0.4,1.9-0.5c-3.5,0.3-9.4,0.1-11.2,0.6c-3.5-0.5-12,0.1-11.6-0.7
								c-1.1,0.2-6.2,0.7-9.5,0.7c5.9-1.1-12.2-0.1-10.6-1.2c-4.4,0.9-15.9,0.4-23.7,0.9c0.4-0.1,1.3-0.2,2-0.2
								c-4.4-0.1-5.7-0.4-8.5-0.5c-0.6,0.8-7.4,1-11.1,1.4c-5.4-0.8,3.3-0.9,1.6-1.6c0.3,0.6-9.3,0.6-7.5,1.2
								c-4.1-0.5-3.5-0.2-5.7-0.9c-0.7,1-3.8,0.2-7.2,0.8c-5.9-0.5-1.5-0.9-8.1-0.6C1569.2,774.2,1575,773.8,1575,773.8z
								 M1419.5,775.5C1419.5,775.5,1419.5,775.5,1419.5,775.5c1.3,0,2.5,0,3.2,0C1422.1,775.5,1421.2,775.5,1419.5,775.5z
								 M1406.5,775.5c1.6,0,3.6,0,5.7,0c0.5,0.2,0,0.4-1.4,0.4C1411.5,775.8,1408.4,775.7,1406.5,775.5z M1434.1,779.4
								c-2.1,0.1-2.8,0-3-0.1c1,0,2.1,0,3.6-0.1c0.1,0,0.2,0,0.2-0.1C1434.7,779.3,1434.5,779.4,1434.1,779.4z"/>
							<path class="st1" d="M1437.8,778.7c0.3,0,0.5,0,0.9,0c-0.4,0-0.8-0.1-1.2-0.1c-0.3,0.1-0.5,0.1-0.7,0.2
								C1437.1,778.7,1437.5,778.7,1437.8,778.7z"/>
							<path class="st1" d="M1660.2,576.2l-0.3,0c0.2,0,0.4,0,0.6,0.1C1660.4,576.2,1660.4,576.2,1660.2,576.2z"/>
							<polygon class="st1" points="1226.1,774.5 1226.1,774.6 1227.3,774.5 							"/>
							<path class="st1" d="M1718.9,589.2c0,0.1-0.1,0.4-0.1,0.9C1718.8,590.1,1718.9,589.7,1718.9,589.2z"/>
							<path class="st1" d="M1718.8,620.3l-0.2,4.4C1718.7,622.8,1718.7,621.4,1718.8,620.3z"/>
							<path class="st1" d="M1718.5,644.2c0.1,0.3,0.2,0.4,0.2,0.5c0,0,0,0,0,0L1718.5,644.2z"/>
							<path class="st1" d="M1407.3,579.2c-0.3,0-0.6,0-0.9,0C1404.2,579.3,1405.6,579.3,1407.3,579.2z"/>
							<path class="st1" d="M1520.3,577.9c-1.2,0.1-2.4,0.2-3.6,0.3C1518.7,578.2,1520.2,578.2,1520.3,577.9z"/>
							<path class="st1" d="M1281,579.9C1281,579.9,1281,579.9,1281,579.9c-0.3,0-0.5,0-0.8,0L1281,579.9z"/>
							<path class="st1" d="M1511.4,578.1c2,0.1,3.7,0.1,5.3,0C1515,578.1,1513.1,578,1511.4,578.1z"/>
							<path class="st1" d="M1718.2,747.7l0,1.2c0,0,0.1,0,0.1,0.1L1718.2,747.7z"/>
							<path class="st1" d="M1718.3,749l0.1,1.3C1718.4,749.7,1718.4,749.2,1718.3,749z"/>
							<path class="st1" d="M1718.5,753l-0.1-2.7C1718.4,751.2,1718.4,752.4,1718.5,753z"/>
							<path class="st1" d="M1718.5,716.1l-0.2-0.4C1718.3,715.9,1718.4,716.1,1718.5,716.1z"/>
							<path class="st1" d="M1718.4,706.5c0,2.3-0.4,5.8-0.3,9l0.2,0.3C1718,714.2,1718.8,708.7,1718.4,706.5z"/>
							<path class="st1" d="M1721,666.4l-0.2,8.1c0.2-1.4,0.5-3.3,0.6,0.4C1722,664.7,1720.9,676.9,1721,666.4z"/>
							<path class="st1" d="M1721.3,641.4c0.1,4.3,0.3-0.1,0.4,0.2C1721.5,638.8,1721.5,638.2,1721.3,641.4z"/>
							<path class="st1" d="M1603.9,575.7l0.4-0.5C1601,575.3,1604.3,575.4,1603.9,575.7z"/>
							<polygon class="st1" points="1569.4,578.4 1572.6,578.7 1574.2,578.2 							"/>
							<polygon class="st1" points="1549,574.7 1550.5,574.7 1544.9,574.9 							"/>
							<path class="st1" d="M1245.9,574.9l1,0.6C1249.2,575.4,1249.6,574.7,1245.9,574.9z"/>
							<path class="st1" d="M1115,575.6c-1.4-0.3-5.1-0.5-7.4-0.2C1110.6,575.4,1113.5,575.6,1115,575.6z"/>
							<polygon class="st1" points="1191.4,779.5 1188.8,779.7 1193.7,779.5 							"/>
						</g>
					</g>
				</g>
			</g>
		</g>
		<rect x="1135.5" y="646.9" class="st2" width="505.9" height="60.2"/>
		<text transform="matrix(1 0 0 1 1135.5435 693.8185)" class="st3 st4 st5">Synapse Table Data</text>
	</g>
	<g>
		<line x1="326" y1="688" x2="326" y2="403"/>
		<g>
			<line class="st8" x1="326" y1="688" x2="326" y2="416.4"/>
			<g>
				<path d="M310.8,418.8c6.3-3.7,11.3-9.6,15.2-15.8c3.8,6.3,9,11.9,15.2,15.8v3.7c-6-3.9-11.2-8.7-15.2-14.5
					c-4,5.8-9.3,10.7-15.2,14.6V418.8z"/>
				<path d="M310.8,427.8c6.3-3.7,11.3-9.6,15.2-15.8c3.8,6.3,9,11.9,15.2,15.8v3.7c-6-3.9-11.2-8.7-15.2-14.5
					c-4,5.8-9.3,10.7-15.2,14.6V427.8z"/>
			</g>
		</g>
	</g>
	<g>
		<line x1="519.5" y1="688" x2="519.5" y2="403"/>
		<g>
			<line class="st8" x1="519.5" y1="674.7" x2="519.5" y2="403"/>
			<g>
				<path d="M504.3,672.2c6.3,3.7,11.3,9.6,15.2,15.8c3.8-6.3,9-11.9,15.2-15.8v-3.7c-6,3.9-11.2,8.7-15.2,14.5
					c-4-5.8-9.3-10.7-15.2-14.6V672.2z"/>
				<path d="M504.3,663.2c6.3,3.7,11.3,9.6,15.2,15.8c3.8-6.3,9-11.9,15.2-15.8v-3.7c-6,3.9-11.2,8.7-15.2,14.5
					c-4-5.8-9.3-10.7-15.2-14.6V663.2z"/>
			</g>
		</g>
	</g>
	<g>
		<line x1="1032.5" y1="454.5" x2="798.5" y2="290.5"/>
		<g>
			<line class="st8" x1="1032.5" y1="454.5" x2="809.5" y2="298.2"/>
			<g>
				<path d="M802.7,312c0.6-7.3-1.4-14.8-4.2-21.5c7.3,0.5,14.9-0.5,21.6-3.4l3.1,2.1c-6.7,2.7-13.5,4.2-20.6,4.1
					c2.5,6.6,3.5,13.8,3.2,20.8L802.7,312z"/>
				<path d="M810.1,317.2c0.6-7.3-1.4-14.8-4.2-21.5c7.3,0.5,14.8-0.5,21.6-3.4l3.1,2.1c-6.7,2.7-13.5,4.2-20.6,4.1
					c2.5,6.6,3.5,13.8,3.2,20.8L810.1,317.2z"/>
			</g>
		</g>
	</g>
	<g>
		<line x1="1032.5" y1="374.5" x2="798.5" y2="210.5"/>
		<g>
			<line class="st8" x1="1021.5" y1="366.9" x2="798.5" y2="210.5"/>
			<g>
				<path d="M1010.9,377.9c6.7-3,14.3-3.8,21.6-3.4c-2.9-6.7-4.6-14.1-4.2-21.5l-3.1-2.1c-0.2,7.2,0.6,14.2,3.2,20.7
					c-7.1-0.1-14.1,1.4-20.6,4.1L1010.9,377.9z"/>
				<path d="M1003.5,372.7c6.7-3,14.3-3.8,21.6-3.4c-2.9-6.7-4.6-14.1-4.2-21.5l-3.1-2.1c-0.2,7.2,0.6,14.2,3.2,20.7
					c-7.1-0.1-14.1,1.4-20.6,4.1L1003.5,372.7z"/>
			</g>
		</g>
	</g>
	<g>
		<line x1="1032.5" y1="685.5" x2="610.5" y2="391.5"/>
		<g>
			<line class="st8" x1="1032.5" y1="685.5" x2="621.5" y2="399.2"/>
			<g>
				<path d="M614.8,413c0.5-7.3-1.4-14.8-4.3-21.5c7.3,0.5,14.9-0.6,21.6-3.4l3.1,2.1c-6.7,2.7-13.5,4.3-20.6,4.2
					c2.5,6.6,3.5,13.8,3.3,20.8L614.8,413z"/>
				<path d="M622.2,418.2c0.5-7.3-1.4-14.8-4.3-21.5c7.3,0.5,14.8-0.6,21.6-3.4l3.1,2.1c-6.7,2.7-13.5,4.3-20.6,4.2
					c2.5,6.6,3.5,13.8,3.3,20.8L622.2,418.2z"/>
			</g>
		</g>
	</g>
	<g>
		<line x1="1032.5" y1="605.5" x2="728.5" y2="393.5"/>
		<g>
			<line class="st8" x1="1021.5" y1="597.9" x2="728.5" y2="393.5"/>
			<g>
				<path d="M1010.9,608.9c6.7-3,14.3-3.8,21.6-3.4c-3-6.7-4.6-14.1-4.3-21.5l-3.1-2.1c-0.2,7.2,0.7,14.2,3.2,20.7
					c-7.1-0.1-14.1,1.5-20.6,4.1L1010.9,608.9z"/>
				<path d="M1003.5,603.8c6.7-3,14.3-3.8,21.6-3.4c-3-6.7-4.6-14.1-4.3-21.5l-3.1-2.1c-0.2,7.2,0.7,14.2,3.2,20.7
					c-7.1-0.1-14.1,1.5-20.6,4.1L1003.5,603.8z"/>
			</g>
		</g>
	</g>
	<rect x="200" y="531" class="st2" width="122" height="44"/>
	<text transform="matrix(1 0 0 1 200 557.827)" class="st4 st9">request</text>
</g>
</svg>
